<svg width="20" height="20" viewBox="0 0 20 20" fill="none" xmlns="http://www.w3.org/2000/svg">
<g clip-path="url(#clip0_6042_19518)">
<path fill-rule="evenodd" clip-rule="evenodd" d="M1.5625 10C1.5625 5.3401 5.3401 1.5625 10 1.5625C14.6599 1.5625 18.4375 5.3401 18.4375 10C18.4375 10.4517 18.4164 11.1411 18.2743 11.7181C18.203 12.0075 18.1095 12.2327 18.0002 12.3812C17.9544 12.4435 17.9094 12.4882 17.8637 12.5193C17.1556 11.8524 16.2337 11.1932 15.2299 10.8979C14.0948 10.5641 12.8544 10.7014 11.7779 11.7779C11.4134 12.1424 10.8675 12.8916 10.8216 13.9635C10.7771 15.002 11.2056 16.2482 12.5301 17.6415C12.4353 17.8248 12.1957 18.0119 11.7379 18.1701C11.1796 18.3629 10.4902 18.4375 10 18.4375C5.3401 18.4375 1.5625 14.6599 1.5625 10ZM10 0.625C4.82233 0.625 0.625 4.82233 0.625 10C0.625 15.1777 4.82233 19.375 10 19.375C10.5584 19.375 11.3582 19.2931 12.044 19.0562C12.6862 18.8344 13.4607 18.3893 13.5147 17.5294C13.5231 17.3951 13.4734 17.2637 13.3783 17.1686C12.0359 15.8261 11.726 14.7546 11.7582 14.0036C11.7909 13.239 12.1825 12.6991 12.4408 12.4408C13.2393 11.6424 14.1083 11.5452 14.9654 11.7974C15.8554 12.0591 16.7269 12.7023 17.4029 13.3783C17.5009 13.4762 17.6371 13.5259 17.7751 13.5139C18.2124 13.4757 18.5344 13.237 18.7553 12.9369C18.9681 12.6479 19.0993 12.2886 19.1846 11.9423C19.3557 11.2478 19.375 10.4614 19.375 10C19.375 4.82233 15.1777 0.625 10 0.625ZM11.875 6.95312C11.875 7.85919 12.6096 8.59375 13.5156 8.59375C14.4217 8.59375 15.1562 7.85919 15.1562 6.95312C15.1562 6.04703 14.4217 5.3125 13.5156 5.3125C12.6096 5.3125 11.875 6.04703 11.875 6.95312ZM10.9375 6.95312C10.9375 8.377 12.0917 9.53125 13.5156 9.53125C14.9395 9.53125 16.0937 8.377 16.0937 6.95312C16.0937 5.52927 14.9395 4.375 13.5156 4.375C12.0917 4.375 10.9375 5.52927 10.9375 6.95312ZM6.95312 8.125C6.04703 8.125 5.3125 7.39044 5.3125 6.48437C5.3125 5.57828 6.04703 4.84375 6.95312 4.84375C7.85919 4.84375 8.59375 5.57828 8.59375 6.48437C8.59375 7.39044 7.85919 8.125 6.95312 8.125ZM6.95312 9.0625C5.52927 9.0625 4.375 7.90825 4.375 6.48437C4.375 5.06052 5.52927 3.90625 6.95312 3.90625C8.377 3.90625 9.53125 5.06052 9.53125 6.48437C9.53125 7.90825 8.377 9.0625 6.95312 9.0625ZM4.84375 13.0469C4.84375 13.9529 5.57828 14.6875 6.48437 14.6875C7.39044 14.6875 8.125 13.9529 8.125 13.0469C8.125 12.1408 7.39044 11.4062 6.48437 11.4062C5.57828 11.4062 4.84375 12.1408 4.84375 13.0469ZM3.90625 13.0469C3.90625 14.4707 5.06052 15.625 6.48437 15.625C7.90825 15.625 9.0625 14.4707 9.0625 13.0469C9.0625 11.623 7.90825 10.4687 6.48437 10.4687C5.06052 10.4687 3.90625 11.623 3.90625 13.0469Z" fill="black"/>
</g>
<defs>
<clipPath id="clip0_6042_19518">
<rect width="20" height="20" fill="white"/>
</clipPath>
</defs>
</svg>
