<svg width="20" height="21" viewBox="0 0 20 21" fill="none" xmlns="http://www.w3.org/2000/svg">
<g clip-path="url(#clip0_7213_10754)">
<path fill-rule="evenodd" clip-rule="evenodd" d="M10 1.60668C9.6055 1.60668 9.28569 1.92647 9.28569 2.32097C9.28569 2.71545 9.6055 3.03525 10 3.03525C10.3945 3.03525 10.7143 2.71545 10.7143 2.32097C10.7143 1.92647 10.3945 1.60668 10 1.60668ZM8.33331 2.32097C8.33331 1.40049 9.0795 0.654297 10 0.654297C10.9205 0.654297 11.6667 1.40049 11.6667 2.32097C11.6667 3.07597 11.1646 3.71372 10.4762 3.91861V5.43755C11.5651 5.53568 12.5579 5.96707 13.3519 6.62893L14.4861 5.49482C14.3583 5.25903 14.2857 4.98895 14.2857 4.70192C14.2857 3.78144 15.0319 3.03525 15.9524 3.03525C16.8729 3.03525 17.6191 3.78144 17.6191 4.70192C17.6191 5.62239 16.8729 6.36858 15.9524 6.36858C15.6654 6.36858 15.3952 6.29603 15.1595 6.16825L14.0254 7.30236C14.6872 8.09636 15.1186 9.08917 15.2167 10.1781H16.7357C16.9406 9.48967 17.5783 8.98761 18.3333 8.98761C19.2538 8.98761 20 9.7338 20 10.6543C20 11.5748 19.2538 12.321 18.3333 12.321C17.5783 12.321 16.9406 11.8189 16.7357 11.1305H15.2167C15.1186 12.2194 14.6872 13.2122 14.0254 14.0062L15.1595 15.1404C15.3952 15.0125 15.6654 14.94 15.9524 14.94C16.8729 14.94 17.6191 15.6862 17.6191 16.6067C17.6191 17.5272 16.8729 18.2734 15.9524 18.2734C15.0319 18.2734 14.2857 17.5272 14.2857 16.6067C14.2857 16.3197 14.3583 16.0495 14.4861 15.8138L13.3519 14.6797C12.5579 15.3415 11.5651 15.7729 10.4762 15.871V17.39C11.1646 17.5949 11.6667 18.2326 11.6667 18.9876C11.6667 19.9081 10.9205 20.6543 10 20.6543C9.0795 20.6543 8.33331 19.9081 8.33331 18.9876C8.33331 18.2326 8.83538 17.5949 9.52381 17.39V15.871C8.43488 15.7729 7.44206 15.3415 6.64806 14.6797L5.51396 15.8138C5.64173 16.0495 5.71429 16.3197 5.71429 16.6067C5.71429 17.5272 4.96809 18.2734 4.04762 18.2734C3.12714 18.2734 2.38095 17.5272 2.38095 16.6067C2.38095 15.6862 3.12714 14.94 4.04762 14.94C4.33465 14.94 4.60473 15.0125 4.84053 15.1404L5.97463 14.0062C5.31277 13.2122 4.88139 12.2194 4.78326 11.1305H3.26431C3.05942 11.8189 2.42167 12.321 1.66667 12.321C0.746194 12.321 0 11.5748 0 10.6543C0 9.7338 0.746194 8.98761 1.66667 8.98761C2.42167 8.98761 3.05942 9.48967 3.26431 10.1781H4.78326C4.88139 9.08917 5.31277 8.09636 5.97463 7.30236L4.84053 6.16825C4.60473 6.29603 4.33465 6.36858 4.04762 6.36858C3.12714 6.36858 2.38095 5.62239 2.38095 4.70192C2.38095 3.78144 3.12714 3.03525 4.04762 3.03525C4.96809 3.03525 5.71429 3.78144 5.71429 4.70192C5.71429 4.98895 5.64173 5.25903 5.51396 5.49482L6.64806 6.62893C7.44206 5.96707 8.43488 5.53568 9.52381 5.43755V3.91861C8.83538 3.71372 8.33331 3.07597 8.33331 2.32097ZM11.5146 6.6439C12.9919 7.20211 14.0799 8.55323 14.2596 10.1781H12.2544C12.2175 9.03761 11.9701 7.91423 11.5146 6.6439ZM10.4001 6.38701C10.971 7.83536 11.2594 9.01217 11.3014 10.1781H8.69856C8.74056 9.01217 9.029 7.83536 9.59994 6.38701C9.73163 6.37482 9.86506 6.36858 10 6.36858C10.1349 6.36858 10.2684 6.37482 10.4001 6.38701ZM8.48544 6.6439C8.02988 7.91423 7.7825 9.03761 7.74569 10.1781H5.74044C5.92006 8.55323 7.00806 7.20211 8.48544 6.6439ZM7.76338 11.1305H5.74044C5.92187 12.7717 7.03013 14.1337 8.53025 14.6814C8.10163 13.3679 7.83869 12.231 7.76338 11.1305ZM9.61675 14.9231C9.743 14.9343 9.87081 14.94 10 14.94C10.1292 14.94 10.257 14.9343 10.3832 14.9231C10.8993 13.4366 11.1975 12.2445 11.2818 11.1305H8.71819C8.8025 12.2445 9.10069 13.4366 9.61675 14.9231ZM12.2366 11.1305C12.1613 12.231 11.8984 13.3679 11.4698 14.6814C12.9699 14.1337 14.0781 12.7717 14.2596 11.1305H12.2366ZM10 18.2734C9.6055 18.2734 9.28569 18.5932 9.28569 18.9876C9.28569 19.3821 9.6055 19.7019 10 19.7019C10.3945 19.7019 10.7143 19.3821 10.7143 18.9876C10.7143 18.5932 10.3945 18.2734 10 18.2734ZM17.6191 10.6543C17.6191 10.2598 17.9389 9.93998 18.3333 9.93998C18.7278 9.93998 19.0476 10.2598 19.0476 10.6543C19.0476 11.0488 18.7278 11.3686 18.3333 11.3686C17.9389 11.3686 17.6191 11.0488 17.6191 10.6543ZM1.66667 9.93998C1.27218 9.93998 0.952381 10.2598 0.952381 10.6543C0.952381 11.0488 1.27218 11.3686 1.66667 11.3686C2.06116 11.3686 2.38095 11.0488 2.38095 10.6543C2.38095 10.2598 2.06116 9.93998 1.66667 9.93998ZM3.33333 4.70192C3.33333 4.30743 3.65313 3.98763 4.04762 3.98763C4.44211 3.98763 4.76191 4.30743 4.76191 4.70192C4.76191 5.0964 4.44211 5.4162 4.04762 5.4162C3.65313 5.4162 3.33333 5.0964 3.33333 4.70192ZM15.9524 3.98763C15.5579 3.98763 15.2381 4.30743 15.2381 4.70192C15.2381 5.0964 15.5579 5.4162 15.9524 5.4162C16.3469 5.4162 16.6667 5.0964 16.6667 4.70192C16.6667 4.30743 16.3469 3.98763 15.9524 3.98763ZM15.2381 16.6067C15.2381 16.2122 15.5579 15.8924 15.9524 15.8924C16.3469 15.8924 16.6667 16.2122 16.6667 16.6067C16.6667 17.0012 16.3469 17.321 15.9524 17.321C15.5579 17.321 15.2381 17.0012 15.2381 16.6067ZM4.04762 15.8924C3.65313 15.8924 3.33333 16.2122 3.33333 16.6067C3.33333 17.0012 3.65313 17.321 4.04762 17.321C4.44211 17.321 4.76191 17.0012 4.76191 16.6067C4.76191 16.2122 4.44211 15.8924 4.04762 15.8924Z" fill="black"/>
</g>
<defs>
<clipPath id="clip0_7213_10754">
<rect width="20" height="20" fill="white" transform="translate(0 0.654297)"/>
</clipPath>
</defs>
</svg>
