<svg width="20" height="20" viewBox="0 0 20 20" fill="none" xmlns="http://www.w3.org/2000/svg">
<g clip-path="url(#clip0_6042_14149)">
<path fill-rule="evenodd" clip-rule="evenodd" d="M12.1329 2.51828C12.3992 2.5923 12.5554 2.86984 12.482 3.13819L8.482 17.7549C8.40856 18.0233 8.13325 18.1808 7.86706 18.1068C7.60081 18.0327 7.44456 17.7551 7.518 17.4868L11.518 2.87012C11.5914 2.60178 11.8668 2.44425 12.1329 2.51828ZM6.41312 6.24838C6.56869 6.47838 6.50981 6.79194 6.28169 6.94875L1.38757 10.3125L6.28169 13.6763C6.50981 13.8331 6.56869 14.1466 6.41312 14.3766C6.25756 14.6066 5.94649 14.6659 5.71833 14.5091L0.218332 10.7289C0.0817294 10.6351 0 10.4792 0 10.3125C0 10.1458 0.0817294 9.98994 0.218332 9.89606L5.71833 6.11588C5.94649 5.95907 6.25756 6.01839 6.41312 6.24838ZM13.5869 6.24838C13.7424 6.01839 14.0535 5.95907 14.2817 6.11588L19.7817 9.89606C19.9182 9.98994 20 10.1458 20 10.3125C20 10.4792 19.9182 10.6351 19.7817 10.7289L14.2817 14.5091C14.0535 14.6659 13.7424 14.6066 13.5869 14.3766C13.4313 14.1466 13.4902 13.8331 13.7183 13.6763L18.6124 10.3125L13.7183 6.94875C13.4902 6.79194 13.4313 6.47838 13.5869 6.24838Z" fill="black"/>
</g>
<defs>
<clipPath id="clip0_6042_14149">
<rect width="20" height="20" fill="white"/>
</clipPath>
</defs>
</svg>
