<svg width="20" height="21" viewBox="0 0 20 21" fill="none" xmlns="http://www.w3.org/2000/svg">
<g clip-path="url(#clip0_7213_10762)">
<path fill-rule="evenodd" clip-rule="evenodd" d="M16.1252 3.4105C16.3271 3.18822 16.6094 3.05469 16.9133 3.05469C17.2172 3.05469 17.4996 3.18822 17.7014 3.4105L17.7021 3.41124L19.6892 5.61036L19.6898 5.61112C19.7898 5.72101 19.8674 5.84952 19.9199 5.98832C19.9726 6.12741 19.9995 6.27541 20 6.42416C20.0004 6.57292 19.9744 6.72112 19.9227 6.86052C19.8709 7 19.7939 7.12925 19.6944 7.24L19.6938 7.24075L18.2916 8.79244L14.7769 4.90269L16.1245 3.41124L16.1252 3.4105ZM16.7174 3.94834L15.8551 4.90269L18.2916 7.59919L19.0995 6.70512C19.1292 6.67201 19.1548 6.63032 19.1727 6.58221C19.1906 6.53384 19.2002 6.48089 19.2 6.42664C19.1998 6.37241 19.1899 6.31956 19.1718 6.27141C19.1535 6.22329 19.1278 6.18209 19.0979 6.14924L19.0968 6.14801L17.1092 3.94834C17.0497 3.88288 16.9781 3.85469 16.9133 3.85469C16.8485 3.85469 16.7769 3.88287 16.7174 3.94834ZM7.54925 4.40851C8.27219 4.2446 9.01762 4.23997 9.74225 4.39494C10.6533 4.5912 11.4958 5.03304 12.1989 5.66809C12.4612 5.90501 12.4348 6.31272 12.1704 6.54724C12.1043 6.60589 12.0033 6.59961 11.9426 6.53541C11.2856 5.84036 10.4639 5.36881 9.57462 5.17721C8.96375 5.04656 8.33581 5.05049 7.72619 5.18872C7.11631 5.32696 6.53475 5.59744 6.01508 5.98672C5.49528 6.37609 5.04736 6.877 4.69868 7.46237C4.35 8.04787 4.10792 8.7055 3.98771 9.39787L3.94082 9.66794L3.67199 9.72162C2.80768 9.89437 2.02467 10.4287 1.49071 11.2302C0.956844 12.0316 0.7166 13.0344 0.825794 14.0324C0.952787 15.0036 1.39379 15.8829 2.0569 16.5096C2.71981 17.1362 3.55855 17.4679 4.41524 17.4543L4.4184 17.4542H7.76306C7.98394 17.4542 8.16306 17.6333 8.16306 17.8542C8.16306 18.0751 7.98394 18.2542 7.76306 18.2542H4.42468C3.34992 18.2704 2.31338 17.8529 1.50737 17.091C0.701606 16.3294 0.180605 15.2761 0.0319575 14.1316L0.0314607 14.1277L0.0310377 14.1239C-0.0990631 12.9445 0.182549 11.7509 0.824938 10.7867C1.41517 9.90075 2.27247 9.26594 3.25027 8.99962C3.39889 8.30869 3.65595 7.64975 4.01136 7.053C4.41136 6.38144 4.92868 5.80096 5.53544 5.34644C6.14228 4.89184 6.8265 4.57239 7.54925 4.40851ZM14.6533 5.00469L18.1727 8.89075L12.7529 14.8661C12.5947 15.0406 12.3887 15.1646 12.1605 15.2227L9.58675 15.8787L9.55919 15.8818C9.48837 15.8897 9.41706 15.8904 9.34619 15.8839C9.18369 15.8795 9.02544 15.8366 8.8825 15.76C8.73362 15.6802 8.60631 15.5666 8.50781 15.4303C8.40938 15.2941 8.34144 15.1379 8.30675 14.9737C8.27206 14.8094 8.27094 14.6391 8.3035 14.4744L8.30437 14.4699L8.90037 11.6233C8.94387 11.4155 9.04175 11.2229 9.184 11.0653L14.6533 5.00469ZM14.6544 6.19761L9.77794 11.6012C9.7305 11.6538 9.69787 11.7179 9.68337 11.7872L9.08794 14.6313C9.07669 14.6896 9.07719 14.7503 9.08944 14.8083C9.10181 14.8669 9.12538 14.9191 9.15619 14.9616C9.18681 15.0041 9.22319 15.0349 9.26044 15.0549C9.29744 15.0747 9.33563 15.0841 9.3725 15.0843L9.3935 15.0844L9.41425 15.0867C9.42588 15.0881 9.4375 15.0885 9.44912 15.0882L11.9629 14.4475C12.0389 14.4281 12.1076 14.3868 12.1604 14.3286L17.093 8.89031L14.6544 6.19761Z" fill="black"/>
</g>
<defs>
<clipPath id="clip0_7213_10762">
<rect width="20" height="20" fill="white" transform="translate(0 0.654297)"/>
</clipPath>
</defs>
</svg>
