<svg width="20" height="20" viewBox="0 0 20 20" fill="none" xmlns="http://www.w3.org/2000/svg">
<g clip-path="url(#clip0_6042_14211)">
<path fill-rule="evenodd" clip-rule="evenodd" d="M3.37934 1.5625C2.37093 1.5625 1.54311 2.41008 1.54311 3.46875V16.5312C1.54311 17.5899 2.37093 18.4375 3.37934 18.4375H8.6585C8.912 18.4375 9.11756 18.6474 9.11756 18.9062C9.11756 19.1651 8.912 19.375 8.6585 19.375H3.37934C1.85244 19.375 0.625 18.0959 0.625 16.5312V3.46875C0.625 1.90406 1.85244 0.625 3.37934 0.625H10.9374C11.3656 0.625 11.7749 0.801025 12.0757 1.11231L14.8464 3.97919C15.147 4.29026 15.3148 4.71085 15.3148 5.14813V9.29687C15.3148 9.55575 15.1092 9.76562 14.8557 9.76562C14.6022 9.76562 14.3967 9.55575 14.3967 9.29687V6.60937H9.97825C9.72475 6.60937 9.51919 6.3995 9.51919 6.14062V1.5625H3.37934ZM10.4373 1.5625V5.67187H14.3967V5.14813C14.3967 4.95552 14.3227 4.77202 14.1929 4.63769L11.4222 1.77081C11.2926 1.63669 11.1181 1.5625 10.9374 1.5625H10.4373ZM18.1945 10.841C17.8446 10.4837 17.2774 10.4837 16.9276 10.841L12.3366 15.5289C12.2898 15.5767 12.2537 15.6342 12.2307 15.6976L11.5286 17.6344L13.4376 16.9293C13.5009 16.9059 13.5584 16.8686 13.6061 16.82L18.1945 12.1347C18.5444 11.7774 18.5444 11.1982 18.1945 10.841ZM16.2784 10.1781C16.9867 9.45475 18.1353 9.45475 18.8437 10.1781C19.5521 10.9014 19.5521 12.0742 18.8437 12.7976L14.2552 17.4829C14.1124 17.6287 13.9399 17.7407 13.7499 17.8109L10.9109 18.8594C10.7429 18.9215 10.5548 18.8784 10.4289 18.7489C10.3031 18.6194 10.2622 18.4271 10.3242 18.2559L11.3697 15.3722C11.4386 15.1821 11.547 15.0094 11.6874 14.866L16.2784 10.1781ZM3.37934 10.9375C3.37934 10.6786 3.58486 10.4687 3.83839 10.4687H8.888C9.14156 10.4687 9.34706 10.6786 9.34706 10.9375C9.34706 11.1964 9.14156 11.4062 8.888 11.4062H3.83839C3.58486 11.4062 3.37934 11.1964 3.37934 10.9375ZM3.37934 14.6875C3.37934 14.4286 3.58486 14.2187 3.83839 14.2187H6.64375C6.89725 14.2187 7.10281 14.4286 7.10281 14.6875C7.10281 14.9464 6.89725 15.1562 6.64375 15.1562H3.83839C3.58486 15.1562 3.37934 14.9464 3.37934 14.6875Z" fill="black"/>
</g>
<defs>
<clipPath id="clip0_6042_14211">
<rect width="20" height="20" fill="white"/>
</clipPath>
</defs>
</svg>
