<svg width="20" height="20" viewBox="0 0 20 20" fill="none" xmlns="http://www.w3.org/2000/svg">
<g clip-path="url(#clip0_6042_14207)">
<path fill-rule="evenodd" clip-rule="evenodd" d="M17.7283 0.0330045C17.9702 -0.0342452 18.2163 0.00454065 18.4172 0.119666C18.6251 0.238775 18.785 0.439484 18.8501 0.687519L19.9692 4.95295C20.0301 5.18521 19.8912 5.42289 19.6589 5.48383C19.4267 5.54477 19.189 5.40588 19.1281 5.17362L18.1411 1.41194L15.4018 5.78757C15.8464 6.72531 16.0955 7.7775 16.0955 8.88775C16.0955 10.8238 15.3381 12.5832 14.1075 13.8672L19.8621 19.2476C20.0376 19.4116 20.0468 19.6867 19.8828 19.8622C19.7188 20.0376 19.4437 20.0468 19.2683 19.8828L13.4664 14.4582C12.2833 15.4204 10.7856 15.9959 9.15325 15.9959C6.53744 15.9959 4.26724 14.5177 3.08339 12.3395L0.771481 15.1689C0.619544 15.3549 0.34564 15.3824 0.159695 15.2305C-0.0262497 15.0786 -0.0538211 14.8047 0.0981125 14.6187L2.6796 11.4594C2.37692 10.6613 2.21101 9.79387 2.21101 8.88775C2.21101 4.97242 5.30891 1.77959 9.15325 1.77959C11.5585 1.77959 13.6716 3.02941 14.9165 4.92404L17.3472 1.04147L13.8171 2.02266C13.5858 2.08697 13.3461 1.95155 13.2817 1.72019C13.2174 1.48884 13.3529 1.24916 13.5843 1.18486L17.7283 0.0330045ZM14.4016 5.74663C13.3469 3.89139 11.3872 2.64916 9.15325 2.64916C5.80966 2.64916 3.08057 5.4319 3.08057 8.88775C3.08057 9.50519 3.16768 10.1011 3.32984 10.6636L7.56163 5.48447C7.82456 5.16271 8.31731 5.16557 8.57644 5.49039L11.9303 9.69406L14.4016 5.74663ZM3.68442 11.6039C4.6689 13.692 6.75269 15.1264 9.15325 15.1264C12.4969 15.1264 15.2259 12.3437 15.2259 8.88775C15.2259 8.11275 15.0887 7.37162 14.8381 6.68812L12.5045 10.4156C12.2659 10.7966 11.7224 10.8277 11.4419 10.4762L8.06463 6.24317L3.68442 11.6039ZM8.235 6.03467C8.23512 6.03454 8.23487 6.03481 8.235 6.03467Z" fill="black"/>
</g>
<defs>
<clipPath id="clip0_6042_14207">
<rect width="20" height="20" fill="white"/>
</clipPath>
</defs>
</svg>
