<svg width="20" height="20" viewBox="0 0 20 20" fill="none" xmlns="http://www.w3.org/2000/svg">
<g clip-path="url(#clip0_6042_19514)">
<path fill-rule="evenodd" clip-rule="evenodd" d="M10.3172 9.64141C10.5349 9.64141 10.7114 9.81596 10.7114 10.0313V15.8792C10.7114 16.0945 10.5349 16.2691 10.3172 16.2691C10.0995 16.2691 9.92296 16.0945 9.92296 15.8792V10.0313C9.92296 9.81596 10.0995 9.64141 10.3172 9.64141Z" fill="black"/>
<path fill-rule="evenodd" clip-rule="evenodd" d="M9.78125 4.4023C10.1201 4.23474 10.5197 4.23788 10.8558 4.41073L15.2145 6.6522C15.4755 6.7864 15.6392 7.0531 15.6392 7.34399V12.5285C15.6392 12.9273 15.4337 13.2987 15.0941 13.5136L10.9465 16.1387C10.5642 16.3807 10.0757 16.3849 9.68913 16.1497L5.36087 13.5156C5.01109 13.3028 4.79803 12.9257 4.79803 12.5195V7.34824C4.79803 7.0529 4.96676 6.78291 5.23387 6.65083L9.78125 4.4023ZM10.492 5.10252C10.38 5.0449 10.2468 5.04386 10.1339 5.09971L6.02415 7.13183L10.1123 9.46431C10.2363 9.53506 10.3894 9.53376 10.5122 9.46092L14.4378 7.13161L10.492 5.10252ZM14.8508 7.79587L10.9178 10.1295C10.5495 10.3481 10.0904 10.352 9.71833 10.1397L5.58648 7.78231V12.5195C5.58648 12.6549 5.6575 12.7806 5.77409 12.8516L10.1024 15.4856C10.2312 15.5641 10.394 15.5626 10.5215 15.482L14.6691 12.8569C14.7823 12.7852 14.8508 12.6615 14.8508 12.5285V7.79587Z" fill="black"/>
<path fill-rule="evenodd" clip-rule="evenodd" d="M10.5023 0.826509C10.386 0.764446 10.246 0.764116 10.1295 0.825632L2.24709 4.98511C2.11866 5.05288 2.03845 5.18512 2.03845 5.32907V14.0865C2.03845 14.2221 2.10976 14.348 2.22673 14.4189L10.1224 19.2026C10.2458 19.2774 10.4008 19.2793 10.526 19.2075L18.3008 14.7502C18.4225 14.6805 18.4974 14.552 18.4974 14.4129V5.32655C18.4974 5.18326 18.4179 5.05152 18.2904 4.98346L10.5023 0.826509ZM9.75828 0.137712C10.108 -0.0468326 10.528 -0.0458443 10.8768 0.140345L18.6649 4.2973C19.0474 4.50147 19.2858 4.89669 19.2858 5.32655V14.4129C19.2858 14.8301 19.0612 15.2156 18.6963 15.4248L10.9215 19.8821C10.5457 20.0975 10.0808 20.0919 9.7105 19.8675L1.81484 15.0838C1.46393 14.8712 1.25 14.4934 1.25 14.0865V5.32907C1.25 4.89721 1.49064 4.50049 1.87591 4.29719L9.75828 0.137712Z" fill="black"/>
<path fill-rule="evenodd" clip-rule="evenodd" d="M5.54289 12.7771C5.6424 12.9686 5.56609 13.2036 5.37244 13.302L2.13601 14.9467C1.94236 15.0452 1.7047 14.9697 1.60519 14.7782C1.50567 14.5867 1.58199 14.3516 1.77564 14.2532L5.01207 12.6085C5.20572 12.5101 5.44338 12.5855 5.54289 12.7771Z" fill="black"/>
<path fill-rule="evenodd" clip-rule="evenodd" d="M14.8882 12.7894C14.9809 12.5945 15.2157 12.5108 15.4127 12.6024L18.9498 14.2472C19.1469 14.3388 19.2315 14.571 19.1389 14.7659C19.0462 14.9607 18.8114 15.0444 18.6144 14.9528L15.0773 13.3081C14.8802 13.2164 14.7956 12.9842 14.8882 12.7894Z" fill="black"/>
<path fill-rule="evenodd" clip-rule="evenodd" d="M10.3172 0.284679C10.5349 0.284679 10.7114 0.459227 10.7114 0.674543V4.32952C10.7114 4.54483 10.5349 4.71938 10.3172 4.71938C10.0995 4.71938 9.92296 4.54483 9.92296 4.32952V0.674543C9.92296 0.459227 10.0995 0.284679 10.3172 0.284679Z" fill="black"/>
</g>
<defs>
<clipPath id="clip0_6042_19514">
<rect width="20" height="20" fill="white"/>
</clipPath>
</defs>
</svg>
