<svg width="61" height="50" viewBox="0 0 61 50" fill="none" xmlns="http://www.w3.org/2000/svg">
<path d="M20.5097 37.4998L30.5097 47.4998M30.5097 47.4998L40.5097 37.4998M30.5097 47.4998V24.9998M52.7097 40.2248C54.8832 38.6964 56.5131 36.5152 57.3629 33.9977C58.2127 31.4802 58.2382 28.7574 57.4357 26.2244C56.6332 23.6914 55.0444 21.4801 52.8999 19.9112C50.7554 18.3424 48.1668 17.4978 45.5097 17.4998H42.3597C41.6078 14.5695 40.2009 11.848 38.245 9.54003C36.2891 7.23211 33.8351 5.39798 31.0677 4.17572C28.3004 2.95345 25.2918 2.3749 22.2685 2.48362C19.2452 2.59235 16.286 3.38551 13.6136 4.8034C10.9412 6.22129 8.62528 8.22695 6.84019 10.6694C5.0551 13.1119 3.84735 15.9274 3.30787 18.9042C2.7684 21.881 2.91125 24.9413 3.72567 27.8549C4.54009 30.7684 6.00487 33.4593 8.00972 35.7248" stroke="#2E2E2E" stroke-width="4" stroke-linecap="round" stroke-linejoin="round"/>
</svg>
