<svg width="20" height="21" viewBox="0 0 20 21" fill="none" xmlns="http://www.w3.org/2000/svg">
<g clip-path="url(#clip0_7213_10758)">
<path fill-rule="evenodd" clip-rule="evenodd" d="M13.9767 1.63491C13.9883 1.62981 13.9998 1.62468 14.0112 1.61953C14.1227 1.56927 14.2272 1.51688 14.3231 1.46515C14.4074 1.41968 14.4851 1.37472 14.5551 1.3322C14.7216 1.23091 14.9531 1.34438 14.9304 1.53239C14.9186 1.63095 14.9033 1.73079 14.8847 1.83149C14.8636 1.94563 14.8382 2.06087 14.8087 2.17662C14.8039 2.19593 14.7989 2.21525 14.7937 2.23459C14.4394 3.5703 13.5533 4.96012 12.469 5.48586C12.4267 5.50633 12.3797 5.5123 12.333 5.50502C12.043 5.45978 10.9331 5.29325 10.3125 5.29325C9.69187 5.29325 8.58206 5.45978 8.292 5.50502C8.24531 5.5123 8.19825 5.50633 8.15606 5.48586C7.079 4.96367 6.1976 3.58897 5.83853 2.26158C5.83352 2.24305 5.8286 2.22453 5.8238 2.20603C5.79478 2.09434 5.76951 1.98308 5.74817 1.87278C5.72838 1.77053 5.71198 1.6691 5.69911 1.56893C5.67423 1.37525 5.92137 1.25913 6.09186 1.36551C6.15958 1.40776 6.23448 1.45182 6.31593 1.49597C6.409 1.54642 6.51068 1.59698 6.61993 1.64507C6.63075 1.64982 6.64162 1.65455 6.65256 1.65926C7.025 1.81921 7.48237 1.94829 7.98868 1.94829C8.472 1.94829 8.75931 1.79308 9.05712 1.63218C9.37756 1.45903 9.71025 1.2793 10.3125 1.2793C10.9083 1.2793 11.2282 1.4552 11.5401 1.6266C11.8363 1.78947 12.1252 1.94829 12.6363 1.94829C13.1207 1.94829 13.5891 1.8059 13.9767 1.63491ZM12.6363 2.84028C12.997 2.84028 13.3425 2.78347 13.6597 2.69721C13.5591 2.93778 13.4401 3.17503 13.3048 3.4004C12.9774 3.94586 12.5972 4.35363 12.2325 4.58687C11.7703 4.51919 10.8857 4.40126 10.3125 4.40126C9.73931 4.40126 8.85468 4.51919 8.3925 4.58687C8.03131 4.35591 7.65475 3.95365 7.32912 3.41521C7.19293 3.1899 7.07275 2.95235 6.97112 2.71117C7.28193 2.7898 7.6235 2.84028 7.98868 2.84028C8.71887 2.84028 9.18812 2.58576 9.50025 2.41645L9.54637 2.3915C9.80506 2.25207 9.96781 2.17128 10.3125 2.17128C10.6528 2.17128 10.8017 2.2489 11.0551 2.388L11.0881 2.40614C11.4078 2.58225 11.8763 2.84028 12.6363 2.84028ZM3.57948 17.6998C3.8206 13.6067 4.78416 10.8703 6.03713 9.18192C7.26912 7.52186 8.78893 6.85423 10.3126 6.85423C11.8387 6.85423 13.3614 7.52417 14.5946 9.19092C15.8488 10.8862 16.8117 13.6337 17.0481 17.7434C17.06 17.95 17.1621 18.4145 17.6652 18.6375C17.7876 18.6917 17.9072 18.7227 17.9784 18.74C18.0219 18.7506 18.0852 18.7647 18.1327 18.7752L18.1332 18.7753H18.1333C18.1544 18.78 18.1723 18.784 18.1841 18.7866C18.3059 18.8145 18.3626 18.8341 18.396 18.8512C18.3971 18.8517 18.3982 18.8523 18.3991 18.8528C18.4003 18.8534 18.4014 18.854 18.4024 18.8545L18.4066 18.857C18.4096 18.8627 18.4166 18.8775 18.4239 18.9055C18.4282 18.922 18.4327 18.9434 18.4366 18.9703L18.4204 19.0083L18.4064 19.0409C18.3354 19.0562 18.1986 19.0792 17.9571 19.0969C17.2767 19.1464 16.1561 19.1407 14.1982 19.1308H14.1981H14.1981H14.198H14.1979C13.1578 19.1255 11.8815 19.1191 10.3094 19.1191C8.73887 19.1191 7.46368 19.1255 6.42443 19.1308H6.42418H6.424H6.42337H6.42318C4.46677 19.1407 3.34698 19.1464 2.66722 19.0969C2.42624 19.0793 2.28964 19.0562 2.21873 19.041C2.21015 19.0211 2.19937 18.996 2.18614 18.9647C2.19347 18.8907 2.20509 18.8449 2.21337 18.8199L2.21779 18.8184C2.24324 18.8098 2.27841 18.8001 2.33166 18.7881C2.36959 18.7795 2.39956 18.7734 2.4366 18.7659H2.43685C2.46174 18.7607 2.48984 18.755 2.52569 18.7474C2.59948 18.7319 2.69785 18.7101 2.79988 18.679C3.32833 18.5179 3.55823 18.0605 3.57948 17.6998ZM17.9762 17.6942C17.9794 17.7493 18.0029 17.8046 18.055 17.8277C18.1224 17.8576 18.2152 17.878 18.3206 17.9013C18.7392 17.9937 19.3564 18.1299 19.3749 19.0752C19.3755 19.1035 19.3693 19.1336 19.3585 19.16C19.3464 19.1895 19.3349 19.218 19.3238 19.2456L19.3237 19.2457C19.2542 19.4182 19.1997 19.5535 19.1082 19.6595C18.7747 20.0459 17.9499 20.0417 14.118 20.0225H14.1174H14.1172C13.0832 20.0174 11.8305 20.0111 10.3094 20.0111C8.78937 20.0111 7.53743 20.0174 6.50425 20.0225H6.50406H6.50343C2.67477 20.0417 1.85036 20.0459 1.51689 19.6597C1.42538 19.5537 1.37084 19.4183 1.30133 19.2458L1.30122 19.2455L1.30092 19.2448C1.28992 19.2175 1.27854 19.1892 1.26657 19.16C1.25575 19.1336 1.24957 19.1035 1.25002 19.0752C1.26542 18.0937 1.79885 17.9844 2.25544 17.8909C2.34789 17.8719 2.4372 17.8536 2.51841 17.8289C2.59812 17.8045 2.64671 17.7296 2.65143 17.6495C3.1449 9.27255 6.61375 5.96225 10.3126 5.96225C14.0179 5.96225 17.4924 9.28436 17.9762 17.6942ZM10.0286 17.5085C10.0286 17.6591 10.1557 17.7811 10.3126 17.7811C10.4694 17.7811 10.5966 17.6591 10.5966 17.5085V17.0054C11.0173 16.9779 11.3833 16.8892 11.6946 16.7393C12.0779 16.5558 12.3688 16.3084 12.5674 15.9971C12.7683 15.6859 12.8687 15.3374 12.8687 14.9519C12.8687 14.6174 12.8006 14.3351 12.6644 14.1052C12.5282 13.8752 12.355 13.687 12.1449 13.5407C11.9371 13.392 11.7188 13.2747 11.4902 13.1887C11.2639 13.1028 11.0584 13.0354 10.8737 12.9867L10.5966 12.9116V10.4339C10.9189 10.465 11.1982 10.5587 11.4348 10.7149C11.6219 10.8384 11.7581 10.9935 11.8434 11.1802C11.9316 11.3734 12.1066 11.5372 12.3264 11.5372C12.5701 11.5372 12.7716 11.3409 12.7079 11.1152C12.6531 10.9207 12.5636 10.7397 12.4392 10.572C12.2314 10.2886 11.9497 10.0656 11.5941 9.90305C11.2971 9.76523 10.9646 9.68505 10.5966 9.66236V9.1338C10.5966 8.98323 10.4694 8.86123 10.3126 8.86123C10.1557 8.86123 10.0286 8.98323 10.0286 9.1338V9.6728C9.71081 9.70511 9.41643 9.78298 9.14531 9.90655C8.78043 10.0714 8.4895 10.3037 8.27243 10.6034C8.05768 10.9007 7.95031 11.2492 7.95031 11.6487C7.95031 12.1295 8.112 12.5186 8.43525 12.8159C8.7585 13.1133 9.19725 13.342 9.75143 13.5024L10.0286 13.582V16.22C9.8495 16.2014 9.67862 16.1642 9.51593 16.1086C9.27343 16.0227 9.07256 15.8926 8.91325 15.7184C8.84162 15.6379 8.78393 15.5477 8.74012 15.4478C8.64637 15.2338 8.45687 15.0494 8.21493 15.0494H8.19975C7.95987 15.0494 7.76575 15.2462 7.82618 15.4689C7.88625 15.6903 7.98193 15.893 8.11312 16.0773C8.32556 16.3723 8.6165 16.6022 8.986 16.7672C9.28843 16.9014 9.63593 16.9809 10.0286 17.006V17.5085ZM10.0286 12.7565V10.4414C9.84356 10.4648 9.675 10.5095 9.52287 10.5755C9.28962 10.6777 9.10718 10.8182 8.97556 10.9971C8.84625 11.176 8.78162 11.3792 8.78162 11.6069C8.78162 11.7974 8.82662 11.9611 8.91668 12.0982C9.00906 12.2329 9.12681 12.3455 9.27 12.4362C9.41318 12.5244 9.56325 12.5976 9.72025 12.6557C9.82912 12.6943 9.93187 12.7279 10.0286 12.7565ZM10.5966 13.7452V16.2191C10.8102 16.1965 11.0076 16.148 11.1889 16.0738C11.4498 15.9646 11.6565 15.8136 11.8089 15.6209C11.9612 15.4257 12.0375 15.198 12.0375 14.9379C12.0375 14.701 11.9717 14.5082 11.8401 14.3595C11.7084 14.2109 11.5352 14.09 11.3205 13.9971C11.1057 13.9042 10.8737 13.8229 10.6243 13.7532L10.5966 13.7452Z" fill="black"/>
</g>
<defs>
<clipPath id="clip0_7213_10758">
<rect width="20" height="20" fill="white" transform="translate(0 0.654297)"/>
</clipPath>
</defs>
</svg>
