<svg width="20" height="20" viewBox="0 0 20 20" fill="none" xmlns="http://www.w3.org/2000/svg">
<g clip-path="url(#clip0_6042_14141)">
<path fill-rule="evenodd" clip-rule="evenodd" d="M5.06159 7.12852C6.25606 5.59715 7.94125 4.52496 10.2621 4.52496C12.5803 4.52496 14.5203 5.71398 15.8567 7.26052C17.1091 8.70983 17.5839 10.5256 17.6493 12.1481H18.5516C19.3663 12.1481 20 12.8295 20 13.6364V15.8144C20 16.6213 19.3663 17.3027 18.5516 17.3027H15.7666C14.9517 17.3027 14.3181 16.6213 14.3181 15.8144V13.6364C14.3181 12.8295 14.9517 12.1481 15.7666 12.1481H16.8486C16.7835 10.6578 16.3441 9.0472 15.2509 7.78214C14.0251 6.36352 12.2909 5.32357 10.2621 5.32357C8.22944 5.32357 6.76313 6.24695 5.6928 7.61914C4.70951 8.87977 4.06474 10.517 3.65728 12.1481H4.23344C5.04823 12.1481 5.68191 12.8295 5.68191 13.6364V15.8144C5.68191 16.6213 5.04823 17.3027 4.23344 17.3027H1.44846C0.633687 17.3027 0 16.6213 0 15.8144V13.6364C0 12.8295 0.633687 12.1481 1.44846 12.1481H2.83383C3.25256 10.3961 3.94447 8.5607 5.06159 7.12852ZM3.14435 12.9467H1.44846C1.10514 12.9467 0.8 13.2404 0.8 13.6364V15.8144C0.8 16.2104 1.10514 16.5041 1.44846 16.5041H4.23344C4.57677 16.5041 4.88191 16.2104 4.88191 15.8144V13.6364C4.88191 13.2404 4.57677 12.9467 4.23344 12.9467H3.16084C3.15536 12.9468 3.14986 12.9468 3.14435 12.9467ZM15.7666 12.9467C15.4232 12.9467 15.1181 13.2404 15.1181 13.6364V15.8144C15.1181 16.2104 15.4232 16.5041 15.7666 16.5041H18.5516C18.8949 16.5041 19.2 16.2104 19.2 15.8144V13.6364C19.2 13.2404 18.8949 12.9467 18.5516 12.9467H15.7666Z" fill="black"/>
<path fill-rule="evenodd" clip-rule="evenodd" d="M0.400023 4.52067C0.402398 4.30015 0.5834 4.1233 0.8043 4.12567L19.4043 4.32533C19.6252 4.3277 19.8024 4.50838 19.8 4.7289C19.7976 4.94942 19.6166 5.12627 19.3957 5.12389L0.7957 4.92424C0.574798 4.92187 0.397648 4.74118 0.400023 4.52067Z" fill="black"/>
<path d="M7.6 3.72635C7.6 3.28528 7.95819 2.92773 8.4 2.92773H11.6C12.0418 2.92773 12.4 3.28528 12.4 3.72635V5.32357C12.4 5.76463 12.0418 6.12218 11.6 6.12218H8.4C7.95819 6.12218 7.6 5.76463 7.6 5.32357V3.72635Z" fill="black"/>
<path fill-rule="evenodd" clip-rule="evenodd" d="M11.6 3.72635H8.4V5.32357H11.6V3.72635ZM8.4 2.92773C7.95819 2.92773 7.6 3.28528 7.6 3.72635V5.32357C7.6 5.76463 7.95819 6.12218 8.4 6.12218H11.6C12.0418 6.12218 12.4 5.76463 12.4 5.32357V3.72635C12.4 3.28528 12.0418 2.92773 11.6 2.92773H8.4Z" fill="black"/>
<path d="M20 4.52496C20 5.18655 19.4627 5.72287 18.8 5.72287C18.1372 5.72287 17.6 5.18655 17.6 4.52496C17.6 3.86337 18.1372 3.32704 18.8 3.32704C19.4627 3.32704 20 3.86337 20 4.52496Z" fill="black"/>
<path d="M2.4 4.52496C2.4 5.18655 1.86274 5.72287 1.2 5.72287C0.537258 5.72287 0 5.18655 0 4.52496C0 3.86337 0.537258 3.32704 1.2 3.32704C1.86274 3.32704 2.4 3.86337 2.4 4.52496Z" fill="black"/>
</g>
<defs>
<clipPath id="clip0_6042_14141">
<rect width="20" height="20" fill="white"/>
</clipPath>
</defs>
</svg>
