<svg width="25" height="24" viewBox="0 0 25 24" fill="none" xmlns="http://www.w3.org/2000/svg">
    <g clip-path="url(#clip0_8376_28399)">
        <path d="M21.6371 3.76815C21.0995 3.20759 20.4613 2.76292 19.7588 2.45954C19.0563 2.15615 18.3034 2 17.543 2C16.7826 2 16.0296 2.15615 15.3271 2.45954C14.6246 2.76292 13.9864 3.20759 13.4488 3.76815L12.3332 4.93095L11.2176 3.76815C10.1318 2.6364 8.65906 2.00059 7.12347 2.00059C5.58787 2.00059 4.11517 2.6364 3.02934 3.76815C1.94351 4.89989 1.3335 6.43487 1.3335 8.03541C1.3335 9.63594 1.94351 11.1709 3.02934 12.3027L4.14496 13.4655L12.3332 22L20.5215 13.4655L21.6371 12.3027C22.1749 11.7424 22.6015 11.0771 22.8926 10.3449C23.1837 9.61276 23.3335 8.82796 23.3335 8.03541C23.3335 7.24285 23.1837 6.45806 22.8926 5.72587C22.6015 4.99368 22.1749 4.32844 21.6371 3.76815V3.76815Z" stroke="black" stroke-width="1.3" stroke-linecap="round" stroke-linejoin="round" />
    </g>
    <defs>
        <clipPath id="clip0_8376_28399">
            <rect width="24" height="24" fill="white" transform="translate(0.333496)" />
        </clipPath>
    </defs>
</svg>
