<svg width="25" height="24" viewBox="0 0 25 24" fill="none" xmlns="http://www.w3.org/2000/svg">
<path fill-rule="evenodd" clip-rule="evenodd" d="M11.9844 0H12.039C18.6514 0 24.0117 5.36035 24.0117 11.9727V12.0273C24.0117 18.6397 18.6514 24 12.039 24H11.9844C5.37207 24 0.0117188 18.6397 0.0117188 12.0273V11.9727C0.0117188 5.36035 5.37207 0 11.9844 0ZM8.29859 4.88286H15.7249C17.7765 4.88286 19.4456 6.55192 19.4456 8.60356V15.3975C19.4456 17.4492 17.7765 19.1182 15.7249 19.1182H8.29859C6.24695 19.1182 4.57789 17.4492 4.57789 15.3975V8.60356C4.57789 6.55192 6.24695 4.88286 8.29859 4.88286ZM8.29859 6.19541C6.97091 6.19541 5.89044 7.27588 5.89044 8.60356V15.3975C5.89044 16.7252 6.97091 17.8057 8.29859 17.8057H15.7249C17.0525 17.8057 18.133 16.7252 18.133 15.3975V8.60356C18.133 7.27588 17.0525 6.19541 15.7249 6.19541H8.29859ZM12.0116 15.4605C13.9195 15.4605 15.4725 13.9083 15.4725 11.9996C15.4725 10.0909 13.9203 8.53874 12.0116 8.53874C10.1029 8.53874 8.55074 10.0909 8.55074 11.9996C8.55074 13.9083 10.1029 15.4605 12.0116 15.4605ZM12.0116 9.85213C13.1964 9.85213 14.16 10.8157 14.16 12.0005C14.16 13.1852 13.1964 14.1488 12.0116 14.1488C10.8269 14.1488 9.86329 13.1852 9.86329 12.0005C9.86329 10.8157 10.8269 9.85213 12.0116 9.85213ZM16.7252 8.16545C16.7252 8.68004 16.3064 9.09794 15.7927 9.09794C15.2781 9.09794 14.8602 8.68004 14.8602 8.16545C14.8602 7.65086 15.2781 7.23296 15.7927 7.23296C16.3073 7.23296 16.7252 7.65086 16.7252 8.16545Z" fill="black"/>
</svg>
