<svg width="48" height="48" viewBox="0 0 48 48" fill="none" xmlns="http://www.w3.org/2000/svg">
    <path fill-rule="evenodd" clip-rule="evenodd" d="M23.95 0H24.0593C37.28 0 47.9976 10.7207 47.9976 23.9453V24.0547C47.9976 37.2793 37.28 48 24.0593 48H23.95C10.7293 48 0.0117188 37.2793 0.0117188 24.0547V23.9453C0.0117188 10.7207 10.7293 0 23.95 0ZM16.5808 9.76562H31.429C35.5311 9.76562 38.8682 13.1037 38.8682 17.207V30.7949C38.8682 34.8982 35.5311 38.2364 31.429 38.2364H16.5808C12.4787 38.2364 9.1416 34.8982 9.1416 30.7949V17.207C9.1416 13.1037 12.4787 9.76562 16.5808 9.76562ZM16.5808 12.3907C13.9262 12.3907 11.7659 14.5517 11.7659 17.207V30.7949C11.7659 33.4503 13.9262 35.6113 16.5808 35.6113H31.429C34.0836 35.6113 36.2439 33.4503 36.2439 30.7949V17.207C36.2439 14.5517 34.0836 12.3907 31.429 12.3907H16.5808ZM24.0047 30.9209C27.8193 30.9209 30.9244 27.8166 30.9244 23.9992C30.9244 20.1818 27.821 17.0774 24.0047 17.0774C20.1884 17.0774 17.085 20.1818 17.085 23.9992C17.085 27.8166 20.1884 30.9209 24.0047 30.9209ZM24.0047 19.7042C26.3735 19.7042 28.3001 21.6314 28.3001 24.0008C28.3001 26.3703 26.3735 28.2975 24.0047 28.2975C21.6359 28.2975 19.7093 26.3703 19.7093 24.0008C19.7093 21.6314 21.6359 19.7042 24.0047 19.7042ZM33.429 16.3308C33.429 17.36 32.5918 18.1958 31.5646 18.1958C30.5357 18.1958 29.7002 17.36 29.7002 16.3308C29.7002 15.3016 30.5357 14.4658 31.5646 14.4658C32.5935 14.4658 33.429 15.3016 33.429 16.3308Z" fill="black"/>
</svg>
