<svg width="20" height="20" viewBox="0 0 20 20" fill="none" xmlns="http://www.w3.org/2000/svg">
<g clip-path="url(#clip0_6042_20000)">
<path fill-rule="evenodd" clip-rule="evenodd" d="M12.4546 0.507932C12.5295 0.316884 12.4359 0.101075 12.2457 0.0259097C12.0554 -0.0492556 11.8405 0.0446862 11.7656 0.235735L10.9752 2.25326C10.9003 2.44431 10.9939 2.66012 11.1841 2.73529C11.3744 2.81045 11.5893 2.71651 11.6641 2.52546L12.4546 0.507932ZM11.083 3.65462C10.424 2.91131 9.23793 3.01529 8.71712 3.86202L8.27775 4.57647L2.12981 13.9657L1.43797 13.987C0.197115 14.0252 -0.448941 15.4876 0.355633 16.4369L1.87098 18.2249C2.71162 19.2169 4.32596 18.7211 4.47027 17.4267L4.55919 16.6291L7.1325 15.5005C7.27319 15.7905 7.47831 16.066 7.81843 16.2204C8.333 16.4539 8.99562 16.3375 9.82781 16.0402C10.3932 15.8382 10.8276 15.6433 11.1476 15.4379C11.4682 15.232 11.7151 14.9893 11.8389 14.6762C11.9649 14.3579 11.931 14.0495 11.8607 13.787C11.8341 13.6872 11.7989 13.5837 11.7601 13.4798L14.7243 12.2378L14.7338 12.2338L14.7431 12.2294L15.7263 11.7682C16.6244 11.3469 16.8646 10.1757 16.2055 9.43231L11.083 3.65462ZM3.02646 14.4006L8.7435 5.66947L13.7222 11.5836L10.9294 12.7537L10.9256 12.7553L10.9219 12.7569L7.20787 14.3857L4.22367 15.6945L3.02646 14.4006ZM15.3084 10.8701L14.6674 11.1708L9.30206 4.79748L9.55706 4.38291C9.73068 4.10066 10.126 4.06601 10.3457 4.31377L15.4682 10.0914C15.6879 10.3392 15.6078 10.7296 15.3084 10.8701ZM2.19233 14.9555L3.58466 16.4602L3.48921 17.3164C3.44111 17.7479 2.90299 17.9131 2.62278 17.5825L1.10743 15.7944C0.839244 15.478 1.05459 14.9905 1.46821 14.9778L2.19233 14.9555ZM8.225 15.3171C8.167 15.2907 8.10937 15.2397 8.03919 15.1029L10.8514 13.8696C10.8739 13.9316 10.8926 13.9889 10.9074 14.0442C10.9492 14.2006 10.9379 14.2687 10.9215 14.3102C10.9031 14.3568 10.8427 14.457 10.6158 14.6027C10.3883 14.7488 10.0349 14.9141 9.49693 15.1062C8.66406 15.4038 8.34787 15.3729 8.225 15.3171ZM16.8686 3.65662C17.0031 3.81121 16.9874 4.04604 16.8335 4.18115L15.2077 5.60789C15.0538 5.74299 14.8199 5.7272 14.6854 5.57262C14.5509 5.41804 14.5666 5.18319 14.7206 5.04809L16.3462 3.62135C16.5002 3.48624 16.7341 3.50204 16.8686 3.65662ZM14.6741 2.18851C14.7861 2.01677 14.7382 1.78635 14.5672 1.67385C14.3962 1.56136 14.1667 1.60938 14.0547 1.78112L12.8716 3.59471C12.7596 3.76646 12.8074 3.99687 12.9784 4.10937C13.1494 4.22186 13.3789 4.17384 13.4909 4.00211L14.6741 2.18851ZM19.9878 8.66544C20.0396 8.864 19.9212 9.06719 19.7235 9.11919L17.6348 9.66831C17.437 9.72031 17.2347 9.6015 17.1829 9.40287C17.1311 9.20425 17.2495 9.00112 17.4472 8.94912L19.5359 8.39994C19.7337 8.34794 19.9361 8.46681 19.9878 8.66544ZM18.3634 6.68837C18.5481 6.60025 18.6266 6.3785 18.5389 6.19305C18.4511 6.00762 18.2303 5.92872 18.0456 6.01684L16.0955 6.94737C15.9108 7.03544 15.8322 7.25719 15.92 7.44262C16.0077 7.62806 16.2286 7.707 16.4132 7.61887L18.3634 6.68837Z" fill="black"/>
</g>
<defs>
<clipPath id="clip0_6042_20000">
<rect width="20" height="20" fill="white"/>
</clipPath>
</defs>
</svg>
