<svg width="20" height="20" viewBox="0 0 20 20" fill="none" xmlns="http://www.w3.org/2000/svg">
<g clip-path="url(#clip0_6088_22033)">
<path fill-rule="evenodd" clip-rule="evenodd" d="M19.2382 0.801591H0.801592V12.4247H19.2382V0.801591ZM0.801592 0C0.358885 0 0 0.358885 0 0.801591V12.4247C0 12.8674 0.358885 13.2263 0.801592 13.2263H19.2382C19.6809 13.2263 20.0398 12.8674 20.0398 12.4247V0.801591C20.0398 0.358885 19.6809 0 19.2382 0H0.801592Z" fill="black"/>
<path fill-rule="evenodd" clip-rule="evenodd" d="M0 17.2342C0 17.0129 0.179442 16.8334 0.400796 16.8334H19.639C19.8603 16.8334 20.0398 17.0129 20.0398 17.2342C20.0398 17.4556 19.8603 17.635 19.639 17.635H0.400796C0.179442 17.635 0 17.4556 0 17.2342Z" fill="black"/>
<path fill-rule="evenodd" clip-rule="evenodd" d="M0 18.8374C0 18.616 0.179442 18.4366 0.400796 18.4366H19.639C19.8603 18.4366 20.0398 18.616 20.0398 18.8374C20.0398 19.0588 19.8603 19.2382 19.639 19.2382H0.400796C0.179442 19.2382 0 19.0588 0 18.8374Z" fill="black"/>
<path d="M12.8255 15.5178C12.8255 15.5373 12.8207 15.5566 12.8116 15.5739L12.6019 15.9713C12.5267 16.1139 12.3226 16.1139 12.2474 15.9713L12.0378 15.5739C12.0286 15.5566 12.0239 15.5373 12.0239 15.5178V14.1481C12.0239 14.0817 12.0777 14.0279 12.1441 14.0279H12.7052C12.7716 14.0279 12.8255 14.0817 12.8255 14.1481V15.5178Z" fill="black"/>
<path fill-rule="evenodd" clip-rule="evenodd" d="M12.4247 15.9066C12.646 15.9066 12.8255 16.086 12.8255 16.3074V19.2382C12.8255 19.4595 12.646 19.639 12.4247 19.639C12.2033 19.639 12.0239 19.4595 12.0239 19.2382V16.3074C12.0239 16.086 12.2033 15.9066 12.4247 15.9066Z" fill="black"/>
<path fill-rule="evenodd" clip-rule="evenodd" d="M2.80557 2.40477H2.40477V3.60716H2.80557V2.40477ZM2.40477 1.60318C1.96207 1.60318 1.60318 1.96207 1.60318 2.40477V3.60716C1.60318 4.04987 1.96207 4.40875 2.40477 4.40875H2.80557C3.24828 4.40875 3.60716 4.04987 3.60716 3.60716V2.40477C3.60716 1.96207 3.24828 1.60318 2.80557 1.60318H2.40477Z" fill="black"/>
<path fill-rule="evenodd" clip-rule="evenodd" d="M17.635 2.40477H17.2342V3.60716H17.635V2.40477ZM17.2342 1.60318C16.7915 1.60318 16.4326 1.96207 16.4326 2.40477V3.60716C16.4326 4.04987 16.7915 4.40875 17.2342 4.40875H17.635C18.0777 4.40875 18.4366 4.04987 18.4366 3.60716V2.40477C18.4366 1.96207 18.0777 1.60318 17.635 1.60318H17.2342Z" fill="black"/>
<path fill-rule="evenodd" clip-rule="evenodd" d="M2.80557 6.01194H2.40477V7.21432H2.80557V6.01194ZM2.40477 5.21034C1.96207 5.21034 1.60318 5.56923 1.60318 6.01194V7.21432C1.60318 7.65703 1.96207 8.01591 2.40477 8.01591H2.80557C3.24828 8.01591 3.60716 7.65703 3.60716 7.21432V6.01194C3.60716 5.56923 3.24828 5.21034 2.80557 5.21034H2.40477Z" fill="black"/>
<path fill-rule="evenodd" clip-rule="evenodd" d="M17.635 6.01194H17.2342V7.21432H17.635V6.01194ZM17.2342 5.21034C16.7915 5.21034 16.4326 5.56923 16.4326 6.01194V7.21432C16.4326 7.65703 16.7915 8.01591 17.2342 8.01591H17.635C18.0777 8.01591 18.4366 7.65703 18.4366 7.21432V6.01194C18.4366 5.56923 18.0777 5.21034 17.635 5.21034H17.2342Z" fill="black"/>
<path fill-rule="evenodd" clip-rule="evenodd" d="M2.80557 9.6191H2.40477V10.8215H2.80557V9.6191ZM2.40477 8.81751C1.96207 8.81751 1.60318 9.17639 1.60318 9.6191V10.8215C1.60318 11.2642 1.96207 11.6231 2.40477 11.6231H2.80557C3.24828 11.6231 3.60716 11.2642 3.60716 10.8215V9.6191C3.60716 9.17639 3.24828 8.81751 2.80557 8.81751H2.40477Z" fill="black"/>
<path fill-rule="evenodd" clip-rule="evenodd" d="M17.635 9.6191H17.2342V10.8215H17.635V9.6191ZM17.2342 8.81751C16.7915 8.81751 16.4326 9.17639 16.4326 9.6191V10.8215C16.4326 11.2642 16.7915 11.6231 17.2342 11.6231H17.635C18.0777 11.6231 18.4366 11.2642 18.4366 10.8215V9.6191C18.4366 9.17639 18.0777 8.81751 17.635 8.81751H17.2342Z" fill="black"/>
<path fill-rule="evenodd" clip-rule="evenodd" d="M4.80955 1.20239C5.0309 1.20239 5.21035 1.38183 5.21035 1.60318L5.21034 11.6231C5.21034 11.8444 5.0309 12.0239 4.80955 12.0239C4.5882 12.0239 4.40875 11.8444 4.40875 11.6231L4.40875 1.60318C4.40875 1.38183 4.5882 1.20239 4.80955 1.20239Z" fill="black"/>
<path fill-rule="evenodd" clip-rule="evenodd" d="M15.2302 1.20239C15.4516 1.20239 15.631 1.38183 15.631 1.60318L15.631 11.6231C15.631 11.8444 15.4516 12.0239 15.2302 12.0239C15.0089 12.0239 14.8294 11.8444 14.8294 11.6231L14.8294 1.60318C14.8294 1.38183 15.0089 1.20239 15.2302 1.20239Z" fill="black"/>
</g>
<defs>
<clipPath id="clip0_6088_22033">
<rect width="20" height="20" fill="white"/>
</clipPath>
</defs>
</svg>
