<svg width="24" height="25" viewBox="0 0 24 25" fill="none" xmlns="http://www.w3.org/2000/svg">
<path fill-rule="evenodd" clip-rule="evenodd" d="M12.1125 10.7394C11.9042 10.7203 11.7544 10.793 11.6668 10.9221L9.96481 13.429L12.9891 17.0305L13.0375 17.0778L15.8224 15.8709C15.9661 15.8086 16.0651 15.6755 16.0838 15.4687C16.103 15.2561 16.0295 14.9816 15.8205 14.7327L12.7945 11.1291C12.5855 10.8802 12.3266 10.759 12.1125 10.7394ZM12.1585 17.4588L11.2025 17.8731C10.9764 17.9711 10.5659 17.8968 10.2503 17.5209L9.02718 16.0644C8.71157 15.6885 8.71192 15.2744 8.8498 15.0713L9.4327 14.2127L12.1585 17.4588ZM9.02049 13.196C9.01648 13.2016 9.01262 13.2073 9.0089 13.213L8.09154 14.5642C7.82043 14.9636 7.78793 15.453 7.92432 15.9073C7.43795 16.5229 7.59703 17.4463 8.11001 18.0571C8.62298 18.668 9.50938 18.9897 10.2072 18.6259C10.4004 18.7235 10.6071 18.7884 10.8167 18.8122L12.7185 20.333C12.907 20.4907 13.1359 20.6572 13.3905 20.7332C13.6853 20.8211 14.0008 20.7824 14.2748 20.5557L14.7138 20.1926C14.8756 20.0588 14.9936 19.8828 15.0299 19.668C15.0647 19.4622 15.0154 19.2741 14.9479 19.1241C14.82 18.8401 14.5714 18.5753 14.3548 18.3638L13.74 17.7636L16.1883 16.7025C16.688 16.4859 16.9512 16.0292 16.9945 15.5496C17.0372 15.0759 16.8721 14.5676 16.5229 14.1517L16.1206 13.6727C16.4824 13.0637 16.3107 12.2314 15.8362 11.6664C15.3617 11.1014 14.5678 10.7837 13.8991 11.0271L13.4969 10.5481C13.1476 10.1322 12.6736 9.87946 12.1964 9.83578C11.7134 9.79155 11.2132 9.96623 10.9086 10.415L9.02049 13.196ZM14.6257 11.8924L15.3941 12.8074C15.3736 12.6356 15.2965 12.4411 15.1338 12.2474C14.9712 12.0537 14.7923 11.9433 14.6257 11.8924ZM11.9388 18.5442L12.837 18.1549L13.7136 19.0108C13.9318 19.2238 14.063 19.3832 14.1131 19.4944C14.1148 19.498 14.1162 19.5014 14.1175 19.5045L13.6894 19.8586C13.6829 19.864 13.6782 19.8672 13.6752 19.869C13.6711 19.8685 13.6537 19.8641 13.6537 19.8641C13.5867 19.8441 13.476 19.7803 13.3044 19.6364L13.3003 19.633L11.9388 18.5442ZM9.32055 17.8312L8.55214 16.9161C8.57258 17.088 8.64973 17.2825 8.81239 17.4762C8.97505 17.6699 9.15388 17.7802 9.32055 17.8312Z" fill="black"/>
<path fill-rule="evenodd" clip-rule="evenodd" d="M18.0172 7.30597H6.05774L3.92034 23.6403L20.1272 23.6403L18.0172 7.30597ZM6.05774 6.3985C5.59829 6.3985 5.21019 6.73689 5.15102 7.1891L3.01362 23.5234C2.94256 24.0664 3.36861 24.5477 3.92034 24.5477H20.1272C20.6783 24.5477 21.1042 24.0674 21.0341 23.5249L18.9241 7.19057C18.8656 6.73771 18.4772 6.3985 18.0172 6.3985H6.05774Z" fill="black"/>
<path fill-rule="evenodd" clip-rule="evenodd" d="M9.02481 1.94346C9.7336 1.07901 10.7491 0.5 12.1488 0.5C13.5489 0.5 14.5568 1.07963 15.2523 1.94741C15.932 2.79564 16.2993 3.89921 16.4973 4.95423C16.6964 6.01548 16.7318 7.06919 16.7185 7.85239C16.7119 8.2453 16.6929 8.57318 16.6755 8.80381C16.6668 8.91918 16.6585 9.01039 16.6523 9.07343C16.6492 9.10495 16.6466 9.12944 16.6447 9.1464L16.6425 9.16613L16.6419 9.17165L16.6417 9.1733C16.6417 9.1733 16.6416 9.1742 16.1876 9.12089L16.6417 9.1733C16.612 9.42215 16.3846 9.60092 16.1339 9.57148C15.8832 9.54204 15.704 9.31654 15.7336 9.06775L15.734 9.06381L15.7357 9.04852C15.7373 9.03458 15.7395 9.01321 15.7423 8.98491C15.7479 8.92831 15.7556 8.84405 15.7638 8.73611C15.78 8.5201 15.798 8.20992 15.8043 7.83715C15.817 7.08901 15.7824 6.10093 15.5984 5.12039C15.4132 4.13362 15.0841 3.1954 14.5367 2.51229C14.0049 1.84873 13.2548 1.40746 12.1488 1.40746C11.0421 1.40746 10.2808 1.84935 9.734 2.51624C9.17217 3.20146 8.82535 4.14146 8.62189 5.12827C8.41964 6.10918 8.3668 7.09742 8.3656 7.84549C8.365 8.21825 8.37722 8.52842 8.3895 8.7444C8.39563 8.85233 8.40177 8.93657 8.40631 8.99315C8.40858 9.02144 8.41045 9.0428 8.41172 9.05674L8.41314 9.07202L8.41346 9.07536C8.43846 9.32464 8.25524 9.54746 8.00406 9.57237C7.75282 9.59729 7.52881 9.41535 7.5037 9.16601L7.9586 9.12089C7.5037 9.16601 7.5037 9.16601 7.5037 9.16601L7.50345 9.16345L7.50291 9.15792L7.50107 9.13818C7.49953 9.12121 7.4974 9.09671 7.49487 9.06518C7.48981 9.00213 7.48318 8.91091 7.47662 8.79552C7.4635 8.56486 7.45064 8.23696 7.45127 7.84405C7.45252 7.06078 7.50738 6.00723 7.72612 4.94635C7.94363 3.89138 8.33107 2.78958 9.02481 1.94346Z" fill="black"/>
</svg>
