<svg width="24" height="25" viewBox="0 0 24 25" fill="none" xmlns="http://www.w3.org/2000/svg">
<g clip-path="url(#clip0_8403_44715)">
<path fill-rule="evenodd" clip-rule="evenodd" d="M4.32493 9.2234C4.15558 9.2234 4.01828 9.36028 4.01828 9.5291C4.01828 9.69793 4.15558 9.8348 4.32493 9.8348H5.72805C5.75797 10.3278 5.88067 10.7583 6.06672 11.1227C5.89669 11.1832 5.74698 11.2542 5.61218 11.3444C5.36786 11.5078 5.19578 11.7179 5.03325 11.9849C4.94538 12.1293 4.99153 12.3172 5.13631 12.4048C5.2811 12.4924 5.46969 12.4465 5.55755 12.3021C5.69326 12.0792 5.80941 11.9487 5.95385 11.8521C6.06637 11.7769 6.20923 11.7133 6.41661 11.6521C6.92071 12.2528 7.6251 12.5678 8.27483 12.5678C8.92455 12.5678 9.62887 12.2528 10.1329 11.6521C10.3404 11.7133 10.4833 11.7769 10.5958 11.8521C10.7402 11.9487 10.8564 12.0792 10.9921 12.3021C11.08 12.4465 11.2685 12.4924 11.4134 12.4048C11.5581 12.3172 11.6042 12.1293 11.5164 11.9849C11.3539 11.7179 11.1817 11.5078 10.9375 11.3444C10.8026 11.2542 10.6529 11.1832 10.4829 11.1227C10.6689 10.7583 10.7916 10.3278 10.8215 9.8348H12.2246C12.3939 9.8348 12.5312 9.69793 12.5312 9.5291C12.5312 9.36028 12.3939 9.2234 12.2246 9.2234H10.8179C10.7902 8.75787 10.7095 8.36435 10.5819 8.0351C10.7119 7.98303 10.8295 7.92303 10.9375 7.8508C11.1817 7.68742 11.3539 7.47728 11.5164 7.2103C11.6042 7.06597 11.5581 6.87796 11.4134 6.79038C11.2685 6.70279 11.08 6.74878 10.9921 6.89311C10.8564 7.11604 10.7402 7.24648 10.5958 7.34307C10.5141 7.39769 10.4164 7.44614 10.2898 7.492C10.1937 7.36018 10.0858 7.24455 9.96698 7.14401C9.90525 7.09179 9.8418 7.04475 9.77715 7.00238C9.90495 6.7642 9.9774 6.49209 9.9774 6.20312C9.9774 5.26576 9.2151 4.50589 8.27483 4.50589C7.33449 4.50589 6.57223 5.26576 6.57223 6.20312C6.57223 6.50785 6.65279 6.79382 6.79383 7.04102C6.71845 7.09239 6.64482 7.14967 6.5736 7.21347C6.44998 7.32419 6.33775 7.45075 6.23828 7.59411C5.92313 7.51654 5.72941 7.43939 5.58538 7.34307C5.44093 7.24648 5.3248 7.11604 5.18909 6.89311C5.10122 6.74878 4.91262 6.70279 4.76784 6.79038C4.62306 6.87796 4.57691 7.06597 4.66477 7.2103C4.82731 7.47728 4.99939 7.68742 5.24372 7.8508C5.44142 7.98301 5.67121 8.07425 5.95014 8.15097C5.83552 8.4569 5.76105 8.81285 5.73322 9.2234H4.32493ZM7.14255 7.84471C6.84515 8.11107 6.57223 8.61508 6.57223 9.59758C6.57223 11.0712 7.5801 11.7192 8.27483 11.7192C8.96947 11.7192 9.9774 11.0712 9.9774 9.59758C9.9774 8.52155 9.69855 8.03 9.4161 7.79099C9.3441 7.73012 9.26587 7.68021 9.1821 7.63953C8.92275 7.51348 8.6112 7.47605 8.27483 7.47605C7.97003 7.47605 7.66687 7.52712 7.40606 7.6631C7.3121 7.71209 7.22363 7.7721 7.14255 7.84471ZM8.97412 6.68717C8.72595 6.63909 8.48528 6.62743 8.27483 6.62743C8.06048 6.62743 7.82505 6.64699 7.58595 6.70189C7.48379 6.56188 7.42351 6.38952 7.42351 6.20312C7.42351 5.73445 7.80465 5.3545 8.27483 5.3545C8.74493 5.3545 9.12608 5.73445 9.12608 6.20312C9.12608 6.38304 9.0699 6.54988 8.97412 6.68717Z" fill="black"/>
<path fill-rule="evenodd" clip-rule="evenodd" d="M0 8.74895C0 4.19318 3.70478 0.5 8.27483 0.5C12.8449 0.5 16.5497 4.19318 16.5497 8.74895C16.5497 10.4937 16.0063 12.112 15.079 13.4448C15.5104 13.4909 15.9294 13.6788 16.2601 14.0084L23.4233 21.1492C24.1922 21.9157 24.1922 23.1586 23.4233 23.9251C22.6544 24.6916 21.4076 24.6916 20.6387 23.9251L13.4755 16.7843C13.1391 16.449 12.9499 16.0226 12.9078 15.5848C11.5858 16.4769 9.99143 16.9979 8.27483 16.9979C3.70478 16.9979 0 13.3048 0 8.74895ZM8.27483 1.72276C4.38221 1.72276 1.2266 4.86849 1.2266 8.74895C1.2266 12.6294 4.38221 15.7752 8.27483 15.7752C12.1675 15.7752 15.3231 12.6294 15.3231 8.74895C15.3231 4.86849 12.1675 1.72276 8.27483 1.72276ZM14.3428 14.873C14.0529 15.162 14.0529 15.6306 14.3428 15.9196L21.506 23.0605C21.796 23.3495 22.266 23.3495 22.556 23.0605C22.8459 22.7715 22.8459 22.3029 22.556 22.0138L15.3927 14.873C15.1027 14.584 14.6327 14.584 14.3428 14.873Z" fill="black"/>
</g>
<defs>
<clipPath id="clip0_8403_44715">
<rect width="24" height="24" fill="white" transform="translate(0 0.5)"/>
</clipPath>
</defs>
</svg>
