<svg width="20" height="20" viewBox="0 0 20 20" fill="none" xmlns="http://www.w3.org/2000/svg">
<g clip-path="url(#clip0_6042_19523)">
<path fill-rule="evenodd" clip-rule="evenodd" d="M15.2034 6.80581L15.1514 6.84262C14.9909 6.95606 14.7766 6.95606 14.6161 6.84262L14.5641 6.80581C14.5324 6.78331 14.4888 6.75237 14.4417 6.71869C14.3497 6.653 14.2366 6.57156 14.1737 6.52375C13.9649 6.36525 13.7054 6.15847 13.464 5.93852C13.2294 5.72471 12.9839 5.47366 12.8274 5.22614C12.5781 4.83237 12.4971 4.34727 12.6047 3.89346C12.8376 2.86548 14.0356 2.4128 14.8837 2.95952C15.7319 2.41283 16.9298 2.86543 17.1627 3.89331C17.2704 4.34717 17.1894 4.83233 16.9401 5.22615C16.7836 5.47366 16.5381 5.72471 16.3034 5.93852C16.0621 6.15847 15.8026 6.36525 15.5938 6.52375C15.5309 6.57156 15.4177 6.653 15.3258 6.71869C15.2786 6.75237 15.2351 6.78331 15.2034 6.80581ZM14.4479 3.7956C14.4618 3.80752 14.4773 3.8231 14.511 3.85796C14.6969 4.10832 15.0706 4.10832 15.2564 3.85797C15.2901 3.8231 15.3056 3.80752 15.3195 3.79561L15.3207 3.79461C15.6409 3.51721 16.164 3.69186 16.256 4.10184L16.2575 4.10826C16.3074 4.31701 16.2695 4.54444 16.1547 4.72577C16.0674 4.86381 15.8984 5.04655 15.6782 5.24714C15.5845 5.33256 15.4864 5.41679 15.3893 5.49706C15.2653 5.5995 15.1427 5.69549 15.0324 5.77922C14.9996 5.8042 14.9444 5.84438 14.8837 5.88814C14.823 5.84438 14.7679 5.80417 14.735 5.77919C14.6248 5.69546 14.5022 5.59949 14.3782 5.49706C14.2811 5.41679 14.183 5.33256 14.0893 5.24714C13.8691 5.04655 13.6999 4.86352 13.6126 4.72549C13.4978 4.54416 13.4601 4.31702 13.51 4.10827L13.5114 4.10183C13.6034 3.69185 14.1266 3.51721 14.4468 3.79461L14.4479 3.7956Z" fill="black"/>
<path fill-rule="evenodd" clip-rule="evenodd" d="M12.0931 0.625C10.8087 0.625 9.76744 1.67012 9.76744 2.95934V5.99397C9.76744 7.28319 10.8087 8.32831 12.0931 8.32831H12.5093L12.3279 10.1493C12.3094 10.3347 12.4026 10.5133 12.5647 10.6038C12.7269 10.6944 12.9272 10.6794 13.0743 10.5658L15.9722 8.32831H17.6744C18.9588 8.32831 20 7.28319 20 5.99397V2.95934C20 1.67012 18.9588 0.625 17.6744 0.625H12.0931ZM10.6977 2.95934C10.6977 2.18581 11.3224 1.55874 12.0931 1.55874H17.6744C18.4451 1.55874 19.0698 2.18581 19.0698 2.95934V5.99397C19.0698 6.7675 18.4451 7.39456 17.6744 7.39456H15.8139C15.7114 7.39456 15.6117 7.42862 15.5304 7.49137L13.3607 9.16669L13.4861 7.90787C13.4991 7.77662 13.4563 7.646 13.3681 7.54819C13.2799 7.45037 13.1547 7.39456 13.0233 7.39456H12.0931C11.3224 7.39456 10.6977 6.7675 10.6977 5.99397V2.95934Z" fill="black"/>
<path d="M0.207165 11.7199C-0.00656875 11.5768 -0.0643238 11.287 0.0781656 11.0724L2.18608 7.89869C2.19765 7.88069 2.21043 7.86356 2.22429 7.84737C2.24072 7.82819 2.25859 7.81044 2.27767 7.79437C2.36046 7.7245 2.46613 7.68481 2.57704 7.68481C2.58579 7.68481 2.59451 7.68506 2.60319 7.6855C2.70271 7.69106 2.79388 7.728 2.86703 7.78662C2.8933 7.80769 2.91742 7.83162 2.93886 7.85831C2.94911 7.871 2.9587 7.88425 2.96759 7.89806L5.07591 11.0724C5.2184 11.287 5.16064 11.5768 4.94691 11.7199C4.73318 11.8629 4.4444 11.8049 4.30191 11.5904L3.04215 9.69362V17.6909C3.04215 17.9487 2.83391 18.1577 2.57703 18.1577C2.32016 18.1577 2.11192 17.9487 2.11192 17.6909V9.69362L0.852162 11.5904C0.709675 11.8049 0.420899 11.8629 0.207165 11.7199Z" fill="black"/>
<path fill-rule="evenodd" clip-rule="evenodd" d="M9.76744 10.1958C8.48306 10.1958 7.44187 11.2409 7.44187 12.5301C7.44187 13.8193 8.48306 14.8644 9.76744 14.8644C11.0519 14.8644 12.0931 13.8193 12.0931 12.5301C12.0931 11.2409 11.0519 10.1958 9.76744 10.1958ZM8.37213 12.5301C8.37213 11.7566 8.99681 11.1295 9.76744 11.1295C10.5381 11.1295 11.1628 11.7566 11.1628 12.5301C11.1628 13.3036 10.5381 13.9307 9.76744 13.9307C8.99681 13.9307 8.37213 13.3036 8.37213 12.5301Z" fill="black"/>
<path fill-rule="evenodd" clip-rule="evenodd" d="M13.0233 14.1642C13.0233 13.1328 13.8562 12.2967 14.8837 12.2967C15.9112 12.2967 16.7442 13.1328 16.7442 14.1642C16.7442 15.1956 15.9112 16.0316 14.8837 16.0316C13.8562 16.0316 13.0233 15.1956 13.0233 14.1642ZM14.8837 13.2304C14.37 13.2304 13.9535 13.6484 13.9535 14.1642C13.9535 14.6798 14.37 15.0979 14.8837 15.0979C15.3975 15.0979 15.8139 14.6798 15.8139 14.1642C15.8139 13.6484 15.3975 13.2304 14.8837 13.2304Z" fill="black"/>
<path fill-rule="evenodd" clip-rule="evenodd" d="M9.36881 15.3313C7.27706 15.3313 5.58143 17.0334 5.58143 19.1329C5.58143 19.6118 5.96816 20 6.44519 20H17.3754C17.7974 20 18.1396 19.6566 18.1396 19.233C18.1396 17.5939 16.8158 16.2651 15.1828 16.2651H14.5847C14.0294 16.2651 13.5093 16.4191 13.0652 16.6866C12.3709 15.8586 11.33 15.3313 10.1661 15.3313H9.36881ZM13.0225 19.0662H6.51244C6.54775 17.5132 7.81306 16.2651 9.36881 16.2651H10.1661C11.1758 16.2651 12.0635 16.7904 12.5723 17.5858C12.8466 18.0144 13.0101 18.521 13.0225 19.0662ZM17.2026 19.0662H13.9529C13.9431 18.4951 13.8076 17.9539 13.5728 17.4701C13.8705 17.2974 14.2158 17.1988 14.5847 17.1988H15.1828C16.2461 17.1988 17.1181 18.0208 17.2026 19.0662Z" fill="black"/>
<path fill-rule="evenodd" clip-rule="evenodd" d="M15.2034 6.80581L15.1514 6.84262C14.9909 6.95606 14.7766 6.95606 14.6161 6.84262L14.5641 6.80581C14.5324 6.78331 14.4888 6.75237 14.4417 6.71869C14.3497 6.653 14.2366 6.57156 14.1737 6.52375C13.9649 6.36525 13.7054 6.15847 13.464 5.93852C13.2294 5.72471 12.9839 5.47366 12.8274 5.22614C12.5781 4.83237 12.4971 4.34727 12.6047 3.89346C12.8376 2.86548 14.0356 2.4128 14.8837 2.95952C15.7319 2.41283 16.9298 2.86543 17.1627 3.89331C17.2704 4.34717 17.1894 4.83233 16.9401 5.22615C16.7836 5.47366 16.5381 5.72471 16.3034 5.93852C16.0621 6.15847 15.8026 6.36525 15.5938 6.52375C15.5309 6.57156 15.4177 6.653 15.3258 6.71869C15.2786 6.75237 15.2351 6.78331 15.2034 6.80581ZM14.4479 3.7956C14.4618 3.80752 14.4773 3.8231 14.511 3.85796C14.6969 4.10832 15.0706 4.10832 15.2564 3.85797C15.2901 3.8231 15.3056 3.80752 15.3195 3.79561L15.3207 3.79461C15.6409 3.51721 16.164 3.69186 16.256 4.10184L16.2575 4.10826C16.3074 4.31701 16.2695 4.54444 16.1547 4.72577C16.0674 4.86381 15.8984 5.04655 15.6782 5.24714C15.5845 5.33256 15.4864 5.41679 15.3893 5.49706C15.2653 5.5995 15.1427 5.69549 15.0324 5.77922C14.9996 5.8042 14.9444 5.84438 14.8837 5.88814C14.823 5.84438 14.7679 5.80417 14.735 5.77919C14.6248 5.69546 14.5022 5.59949 14.3782 5.49706C14.2811 5.41679 14.183 5.33256 14.0893 5.24714C13.8691 5.04655 13.6999 4.86352 13.6126 4.72549C13.4978 4.54416 13.4601 4.31702 13.51 4.10827L13.5114 4.10183C13.6034 3.69185 14.1266 3.51721 14.4468 3.79461L14.4479 3.7956Z" fill="black"/>
<path fill-rule="evenodd" clip-rule="evenodd" d="M12.0931 0.625C10.8087 0.625 9.76744 1.67012 9.76744 2.95934V5.99397C9.76744 7.28319 10.8087 8.32831 12.0931 8.32831H12.5093L12.3279 10.1493C12.3094 10.3347 12.4026 10.5133 12.5647 10.6038C12.7269 10.6944 12.9272 10.6794 13.0743 10.5658L15.9722 8.32831H17.6744C18.9588 8.32831 20 7.28319 20 5.99397V2.95934C20 1.67012 18.9588 0.625 17.6744 0.625H12.0931ZM10.6977 2.95934C10.6977 2.18581 11.3224 1.55874 12.0931 1.55874H17.6744C18.4451 1.55874 19.0698 2.18581 19.0698 2.95934V5.99397C19.0698 6.7675 18.4451 7.39456 17.6744 7.39456H15.8139C15.7114 7.39456 15.6117 7.42862 15.5304 7.49137L13.3607 9.16669L13.4861 7.90787C13.4991 7.77662 13.4563 7.646 13.3681 7.54819C13.2799 7.45037 13.1547 7.39456 13.0233 7.39456H12.0931C11.3224 7.39456 10.6977 6.7675 10.6977 5.99397V2.95934Z" fill="black"/>
<path d="M0.207165 11.7199C-0.00656875 11.5768 -0.0643238 11.287 0.0781656 11.0724L2.18608 7.89869C2.19765 7.88069 2.21043 7.86356 2.22429 7.84737C2.24072 7.82819 2.25859 7.81044 2.27767 7.79437C2.36046 7.7245 2.46613 7.68481 2.57704 7.68481C2.58579 7.68481 2.59451 7.68506 2.60319 7.6855C2.70271 7.69106 2.79388 7.728 2.86703 7.78662C2.8933 7.80769 2.91742 7.83162 2.93886 7.85831C2.94911 7.871 2.9587 7.88425 2.96759 7.89806L5.07591 11.0724C5.2184 11.287 5.16064 11.5768 4.94691 11.7199C4.73318 11.8629 4.4444 11.8049 4.30191 11.5904L3.04215 9.69362V17.6909C3.04215 17.9487 2.83391 18.1577 2.57703 18.1577C2.32016 18.1577 2.11192 17.9487 2.11192 17.6909V9.69362L0.852162 11.5904C0.709675 11.8049 0.420899 11.8629 0.207165 11.7199Z" fill="black"/>
<path fill-rule="evenodd" clip-rule="evenodd" d="M9.76744 10.1958C8.48306 10.1958 7.44187 11.2409 7.44187 12.5301C7.44187 13.8193 8.48306 14.8644 9.76744 14.8644C11.0519 14.8644 12.0931 13.8193 12.0931 12.5301C12.0931 11.2409 11.0519 10.1958 9.76744 10.1958ZM8.37213 12.5301C8.37213 11.7566 8.99681 11.1295 9.76744 11.1295C10.5381 11.1295 11.1628 11.7566 11.1628 12.5301C11.1628 13.3036 10.5381 13.9307 9.76744 13.9307C8.99681 13.9307 8.37213 13.3036 8.37213 12.5301Z" fill="black"/>
<path fill-rule="evenodd" clip-rule="evenodd" d="M13.0233 14.1642C13.0233 13.1328 13.8562 12.2967 14.8837 12.2967C15.9112 12.2967 16.7442 13.1328 16.7442 14.1642C16.7442 15.1956 15.9112 16.0316 14.8837 16.0316C13.8562 16.0316 13.0233 15.1956 13.0233 14.1642ZM14.8837 13.2304C14.37 13.2304 13.9535 13.6484 13.9535 14.1642C13.9535 14.6798 14.37 15.0979 14.8837 15.0979C15.3975 15.0979 15.8139 14.6798 15.8139 14.1642C15.8139 13.6484 15.3975 13.2304 14.8837 13.2304Z" fill="black"/>
<path fill-rule="evenodd" clip-rule="evenodd" d="M9.36881 15.3313C7.27706 15.3313 5.58143 17.0334 5.58143 19.1329C5.58143 19.6118 5.96816 20 6.44519 20H17.3754C17.7974 20 18.1396 19.6566 18.1396 19.233C18.1396 17.5939 16.8158 16.2651 15.1828 16.2651H14.5847C14.0294 16.2651 13.5093 16.4191 13.0652 16.6866C12.3709 15.8586 11.33 15.3313 10.1661 15.3313H9.36881ZM13.0225 19.0662H6.51244C6.54775 17.5132 7.81306 16.2651 9.36881 16.2651H10.1661C11.1758 16.2651 12.0635 16.7904 12.5723 17.5858C12.8466 18.0144 13.0101 18.521 13.0225 19.0662ZM17.2026 19.0662H13.9529C13.9431 18.4951 13.8076 17.9539 13.5728 17.4701C13.8705 17.2974 14.2158 17.1988 14.5847 17.1988H15.1828C16.2461 17.1988 17.1181 18.0208 17.2026 19.0662Z" fill="black"/>
</g>
<defs>
<clipPath id="clip0_6042_19523">
<rect width="20" height="20" fill="white"/>
</clipPath>
</defs>
</svg>
