<svg width="20" height="20" viewBox="0 0 20 20" fill="none" xmlns="http://www.w3.org/2000/svg">
<path fill-rule="evenodd" clip-rule="evenodd" d="M2.00587 1.66992C2.19033 1.66992 2.33987 1.81946 2.33987 2.00392V17.7017H18.0377C18.2222 17.7017 18.3717 17.8513 18.3717 18.0357C18.3717 18.2202 18.2222 18.3697 18.0377 18.3697H1.67188V2.00392C1.67188 1.81946 1.82141 1.66992 2.00587 1.66992Z" fill="black"/>
<path fill-rule="evenodd" clip-rule="evenodd" d="M6.01383 10.6878H4.67784V17.7017H6.01383V10.6878ZM4.67784 10.0198C4.30892 10.0198 4.00985 10.3189 4.00985 10.6878V17.7017C4.00985 18.0707 4.30892 18.3697 4.67784 18.3697H6.01383C6.38275 18.3697 6.68182 18.0707 6.68182 17.7017V10.6878C6.68182 10.3189 6.38275 10.0198 6.01383 10.0198H4.67784Z" fill="black"/>
<path fill-rule="evenodd" clip-rule="evenodd" d="M9.35379 8.34985H8.01781V17.7017H9.35379V8.34985ZM8.01781 7.68186C7.64889 7.68186 7.34982 7.98093 7.34982 8.34985V17.7017C7.34982 18.0707 7.64889 18.3697 8.01781 18.3697H9.35379C9.72272 18.3697 10.0218 18.0707 10.0218 17.7017V8.34985C10.0218 7.98093 9.72272 7.68186 9.35379 7.68186H8.01781Z" fill="black"/>
<path fill-rule="evenodd" clip-rule="evenodd" d="M12.6938 10.6878H11.3578V17.7017H12.6938V10.6878ZM11.3578 10.0198C10.9889 10.0198 10.6898 10.3189 10.6898 10.6878V17.7017C10.6898 18.0707 10.9889 18.3697 11.3578 18.3697H12.6938C13.0627 18.3697 13.3618 18.0707 13.3618 17.7017V10.6878C13.3618 10.3189 13.0627 10.0198 12.6938 10.0198H11.3578Z" fill="black"/>
<path fill-rule="evenodd" clip-rule="evenodd" d="M16.0337 6.34587H14.6977V17.7017H16.0337V6.34587ZM14.6977 5.67788C14.3288 5.67788 14.0297 5.97695 14.0297 6.34587V17.7017C14.0297 18.0707 14.3288 18.3697 14.6977 18.3697H16.0337C16.4026 18.3697 16.7017 18.0707 16.7017 17.7017V6.34587C16.7017 5.97695 16.4026 5.67788 16.0337 5.67788H14.6977Z" fill="black"/>
<path fill-rule="evenodd" clip-rule="evenodd" d="M15.5864 2.75517C15.7249 2.87703 15.7383 3.08808 15.6165 3.22655L11.7662 7.60189L8.07727 5.58977L5.58201 8.08503C5.45157 8.21546 5.2401 8.21546 5.10967 8.08503C4.97923 7.95459 4.97923 7.74312 5.10967 7.61268L7.95835 4.764L11.6174 6.75983L15.115 2.78526C15.2369 2.64678 15.4479 2.63331 15.5864 2.75517Z" fill="black"/>
<path d="M5.67983 8.01585C5.67983 8.38478 5.38076 8.68385 5.01184 8.68385C4.64292 8.68385 4.34385 8.38478 4.34385 8.01585C4.34385 7.64693 4.64292 7.34786 5.01184 7.34786C5.38076 7.34786 5.67983 7.64693 5.67983 8.01585Z" fill="black"/>
<path d="M8.6858 5.00989C8.6858 5.37881 8.38673 5.67788 8.01781 5.67788C7.64889 5.67788 7.34982 5.37881 7.34982 5.00989C7.34982 4.64096 7.64889 4.34189 8.01781 4.34189C8.38673 4.34189 8.6858 4.64096 8.6858 5.00989Z" fill="black"/>
<path d="M12.3598 7.01386C12.3598 7.38279 12.0607 7.68186 11.6918 7.68186C11.3228 7.68186 11.0238 7.38279 11.0238 7.01386C11.0238 6.64494 11.3228 6.34587 11.6918 6.34587C12.0607 6.34587 12.3598 6.64494 12.3598 7.01386Z" fill="black"/>
<path d="M16.0337 3.00591C16.0337 3.37483 15.7347 3.6739 15.3657 3.6739C14.9968 3.6739 14.6977 3.37483 14.6977 3.00591C14.6977 2.63699 14.9968 2.33791 15.3657 2.33791C15.7347 2.33791 16.0337 2.63699 16.0337 3.00591Z" fill="black"/>
</svg>
