<svg width="24" height="25" viewBox="0 0 24 25" fill="none" xmlns="http://www.w3.org/2000/svg">
<g clip-path="url(#clip0_8403_44696)">
<path fill-rule="evenodd" clip-rule="evenodd" d="M12.0233 14.2011C14.3897 14.2011 16.3081 12.2974 16.3081 9.94905C16.3081 7.6007 14.3897 5.69698 12.0233 5.69698C9.65686 5.69698 7.73848 7.6007 7.73848 9.94905C7.73848 12.2974 9.65686 14.2011 12.0233 14.2011ZM15.362 9.94905C15.362 11.7443 13.889 13.2392 12.0233 13.2392C10.1576 13.2392 8.68457 11.7443 8.68457 9.94905C8.68457 8.15381 10.1576 6.65889 12.0233 6.65889C13.889 6.65889 15.362 8.15381 15.362 9.94905Z" fill="black"/>
<path fill-rule="evenodd" clip-rule="evenodd" d="M18.2775 18.0121L18.29 18.0273C18.4947 18.2783 18.6805 18.5422 18.8456 18.8172C19.4141 19.7645 19.736 20.8445 19.736 21.9908C18.879 24.5478 12.0233 24.5477 12.0233 24.5477C12.0233 24.5477 5.16758 24.5478 4.31062 21.9908C4.31062 20.8445 4.63255 19.7645 5.20107 18.8171C5.36609 18.5421 5.55189 18.2783 5.75662 18.0273L5.76721 18.0144L5.75584 18.0264L4.77241 17.0806C4.27738 16.6045 4.15132 15.8559 4.46262 15.241L4.93147 14.3149C5.00714 14.1655 5.01132 13.9647 4.9225 13.7668C4.86084 13.6294 4.8034 13.49 4.75012 13.3497C4.679 13.1625 4.54411 13.0322 4.39232 12.9811L3.30957 12.6171C2.68426 12.4069 2.26064 11.8187 2.25391 11.1538V9.62088L2.25412 9.59472C2.26512 8.92676 2.69657 8.33877 3.32815 8.13537L4.33984 7.80957C4.49433 7.75981 4.63221 7.62846 4.70458 7.43857C4.75697 7.30111 4.81335 7.16452 4.87379 7.02985C4.96261 6.83193 4.95843 6.63119 4.88275 6.48172L4.40912 5.5462C4.10124 4.9381 4.22088 4.19824 4.70427 3.72084L5.49479 2.94013C5.96126 2.47945 6.66396 2.36506 7.24995 2.65442L8.26555 3.15592C8.40909 3.2268 8.59835 3.23027 8.78566 3.14721C8.93832 3.07953 9.09352 3.01691 9.24976 2.95927C9.43424 2.89122 9.56458 2.75747 9.61723 2.60473L9.98213 1.54614C10.1981 0.919729 10.7825 0.5 11.4388 0.5H12.5976C13.2613 0.5 13.8507 0.929164 14.0608 1.56554L14.3867 2.5526C14.4381 2.70819 14.5695 2.84505 14.7567 2.91433C14.9101 2.9711 15.0624 3.03266 15.2122 3.09911C15.3995 3.18216 15.5888 3.17869 15.7323 3.10781L16.7479 2.60631C17.3339 2.31695 18.0366 2.43135 18.5031 2.89202L19.2936 3.67273C19.777 4.15013 19.8966 4.88999 19.5888 5.4981L19.1151 6.43362C19.0395 6.58309 19.0353 6.78382 19.1241 6.98174C19.1858 7.11914 19.2432 7.25853 19.2965 7.39881C19.3676 7.58605 19.5025 7.71638 19.6543 7.76741L20.737 8.13143C21.3623 8.34166 21.786 8.92987 21.7927 9.59472V11.1277L21.7925 11.1538C21.7815 11.8218 21.35 12.4098 20.7184 12.6132L19.7068 12.939C19.5523 12.9887 19.4144 13.1201 19.342 13.31C19.2896 13.4474 19.2332 13.584 19.1728 13.7187C19.084 13.9166 19.0882 14.1174 19.1638 14.2668L19.6328 15.1932C19.944 15.8078 19.8182 16.5562 19.3235 17.0324L18.2911 18.0262L18.2775 18.0121ZM3.28226 11.1382C3.28248 11.3618 3.42419 11.5603 3.63415 11.6308L4.7169 11.9949C5.19622 12.156 5.5429 12.5369 5.71016 12.9772C5.75653 13.0993 5.80617 13.2197 5.85902 13.3375C6.05642 13.7773 6.0869 14.3144 5.84693 14.7884L5.37808 15.7145C5.27431 15.9194 5.31633 16.169 5.48134 16.3277L6.46471 17.2736L6.43024 17.3102L6.43319 17.3075C6.44451 17.297 6.45587 17.2865 6.46727 17.2761C6.70206 17.0612 6.95275 16.8599 7.21767 16.6737C8.53579 15.747 10.2062 15.1932 12.0233 15.1932C13.8405 15.1932 15.5108 15.7471 16.829 16.6737C17.0939 16.8599 17.3446 17.0612 17.5793 17.2761L17.6115 17.3057L17.6143 17.3083L17.5817 17.2737L18.6143 16.2797C18.7792 16.121 18.8211 15.8716 18.7174 15.6667L18.2484 14.7403C18.0084 14.2663 18.0389 13.7292 18.2363 13.2893C18.2881 13.1739 18.3368 13.056 18.3824 12.9364C18.5524 12.4903 18.9066 12.1058 19.3946 11.9486L20.4063 11.6228C20.6195 11.5542 20.7643 11.3539 20.7643 11.1277V9.61083C20.7643 9.38702 20.6226 9.18834 20.4124 9.1177L19.3297 8.75368C18.8504 8.59253 18.5037 8.21168 18.3364 7.77134C18.2901 7.64925 18.2404 7.52886 18.1876 7.41109C17.9902 6.97122 17.9597 6.43411 18.1997 5.96013L18.6733 5.02461C18.7759 4.82191 18.7361 4.57529 18.5749 4.41616L17.7844 3.63545C17.6289 3.48189 17.3947 3.44376 17.1994 3.54021L16.1838 4.04172C15.7297 4.26593 15.2209 4.23795 14.7991 4.05094C14.6699 3.99366 14.5375 3.9401 14.4031 3.89034C13.9577 3.72548 13.5731 3.37192 13.4112 2.88163L13.0853 1.89458C13.0153 1.68245 12.8188 1.5394 12.5976 1.5394H11.4388C11.22 1.5394 11.0252 1.67931 10.9532 1.88811L10.5883 2.9467C10.4225 3.42783 10.0417 3.77358 9.60233 3.93567C9.46533 3.98621 9.33039 4.0407 9.19878 4.09905C8.77702 4.28606 8.2682 4.31404 7.81414 4.08982L6.79853 3.58832C6.6032 3.49187 6.36897 3.53 6.21348 3.68356L5.42296 4.46426C5.26183 4.6234 5.22195 4.87002 5.32458 5.07272L5.79821 6.00824C6.03818 6.48222 6.00771 7.01932 5.81031 7.4592C5.75851 7.57463 5.70979 7.69259 5.66421 7.81218C5.49419 8.2583 5.14004 8.64275 4.65203 8.79991L3.64035 9.12571C3.42707 9.1944 3.28226 9.39464 3.28226 9.62088V11.1382ZM16.9582 18.0024L17.541 18.6209C18.293 19.5389 18.7424 20.6418 18.7863 21.8028C18.6544 22.0434 18.3518 22.3229 17.7716 22.5963C17.1165 22.9049 16.2715 23.1268 15.3973 23.2802C14.5324 23.4321 13.6858 23.509 13.0513 23.5476C12.7354 23.5668 12.475 23.5764 12.295 23.5812C12.205 23.5835 12.1353 23.5847 12.089 23.5853C12.0658 23.5856 12.0485 23.5857 12.0374 23.5858L12.0255 23.5858L12.0234 23.5858L12.0211 23.5858L12.0092 23.5858C11.9981 23.5857 11.9808 23.5856 11.9576 23.5853C11.9113 23.5847 11.8416 23.5835 11.7516 23.5812C11.5716 23.5764 11.3112 23.5668 10.9953 23.5476C10.3608 23.509 9.51422 23.4321 8.64926 23.2802C7.77508 23.1268 6.93013 22.9049 6.27502 22.5963C5.69481 22.3229 5.39223 22.0434 5.26027 21.8028C5.30418 20.6426 5.75301 19.5404 6.50402 18.6228L7.08655 18.0042C8.30055 16.8792 10.0336 16.1551 12.0233 16.1551C14.012 16.1551 15.7443 16.8785 16.9582 18.0024Z" fill="black"/>
</g>
<defs>
<clipPath id="clip0_8403_44696">
<rect width="24" height="24" fill="white" transform="translate(0 0.5)"/>
</clipPath>
</defs>
</svg>
