<svg width="40" height="40" viewBox="0 0 40 40" fill="none" xmlns="http://www.w3.org/2000/svg">
    <g clip-path="url(#clip0_8239_39099)">
        <path fill-rule="evenodd" clip-rule="evenodd" d="M20.5984 19.2445C21.0329 19.2445 21.3852 19.5929 21.3852 20.0227V31.6954C21.3852 32.1252 21.0329 32.4736 20.5984 32.4736C20.1638 32.4736 19.8115 32.1252 19.8115 31.6954V20.0227C19.8115 19.5929 20.1638 19.2445 20.5984 19.2445Z" fill="#E8E8E8" />
        <path fill-rule="evenodd" clip-rule="evenodd" d="M19.5286 8.78712C20.205 8.45266 21.0025 8.45892 21.6734 8.80395L30.3736 13.278C30.8945 13.5459 31.2213 14.0782 31.2213 14.6588V25.0073C31.2213 25.8033 30.8112 26.5445 30.1332 26.9736L21.8545 32.2134C21.0915 32.6963 20.1163 32.7048 19.3447 32.2353L10.7054 26.9776C10.0073 26.5527 9.58197 25.8001 9.58197 24.9894V14.6673C9.58197 14.0778 9.91876 13.5389 10.4519 13.2753L19.5286 8.78712ZM20.9474 10.1848C20.7237 10.0698 20.4579 10.0677 20.2324 10.1792L12.0293 14.2353L20.1895 18.891C20.437 19.0323 20.7425 19.0297 20.9876 18.8843L28.8232 14.2349L20.9474 10.1848ZM29.6475 15.5608L21.7973 20.2188C21.0621 20.655 20.1456 20.6628 19.403 20.2391L11.1557 15.5337V24.9894C11.1557 25.2596 11.2975 25.5105 11.5302 25.6521L20.1696 30.9098C20.4267 31.0663 20.7518 31.0635 21.0061 30.9025L29.2848 25.6627C29.5108 25.5197 29.6475 25.2727 29.6475 25.0073V15.5608Z" fill="#E8E8E8" />
        <path fill-rule="evenodd" clip-rule="evenodd" d="M20.9679 1.64974C20.7358 1.52586 20.4564 1.5252 20.2237 1.64798L4.49021 9.95042C4.23388 10.0857 4.07377 10.3496 4.07377 10.637V28.117C4.07377 28.3877 4.21611 28.6391 4.44958 28.7805L20.2096 38.329C20.456 38.4783 20.7653 38.482 21.0153 38.3387L36.534 29.4419C36.7768 29.3027 36.9262 29.0462 36.9262 28.7686V10.6319C36.9262 10.3459 36.7676 10.083 36.5131 9.94714L20.9679 1.64974ZM19.4828 0.274877C20.1808 -0.0934793 21.0191 -0.0915066 21.7153 0.280133L37.2606 8.57754C38.0241 8.98506 38.5 9.77393 38.5 10.6319V28.7686C38.5 29.6012 38.0516 30.3708 37.3233 30.7883L21.8046 39.6852C21.0546 40.1151 20.1266 40.104 19.3874 39.6561L3.62744 30.1076C2.927 29.6833 2.5 28.9293 2.5 28.117V10.637C2.5 9.77497 2.98032 8.98312 3.74933 8.57731L19.4828 0.274877Z" fill="#E8E8E8" />
        <path fill-rule="evenodd" clip-rule="evenodd" d="M11.0687 25.5034C11.2674 25.8856 11.115 26.3548 10.7285 26.5512L4.2685 29.8341C3.88196 30.0306 3.40759 29.8799 3.20896 29.4977C3.01033 29.1154 3.16265 28.6463 3.54919 28.4499L10.0092 25.1669C10.3957 24.9705 10.8701 25.1211 11.0687 25.5034Z" fill="#E8E8E8" />
        <path fill-rule="evenodd" clip-rule="evenodd" d="M29.7223 25.5279C29.9073 25.139 30.376 24.972 30.7693 25.1548L37.8294 28.4378C38.2227 28.6207 38.3916 29.0842 38.2067 29.4731C38.0218 29.862 37.553 30.0291 37.1598 29.8462L30.0996 26.5633C29.7063 26.3804 29.5374 25.9169 29.7223 25.5279Z" fill="#E8E8E8" />
        <path fill-rule="evenodd" clip-rule="evenodd" d="M20.5984 0.568228C21.0329 0.568228 21.3852 0.91663 21.3852 1.34641V8.64184C21.3852 9.07161 21.0329 9.42002 20.5984 9.42002C20.1638 9.42002 19.8115 9.07161 19.8115 8.64184V1.34641C19.8115 0.91663 20.1638 0.568228 20.5984 0.568228Z" fill="#E8E8E8" />
    </g>
    <defs>
        <clipPath id="clip0_8239_39099">
            <rect width="40" height="40" fill="white" />
        </clipPath>
    </defs>
</svg>
