<svg width="24" height="25" viewBox="0 0 24 25" fill="none" xmlns="http://www.w3.org/2000/svg">
<path fill-rule="evenodd" clip-rule="evenodd" d="M23.04 1.46H0.96V18.74H23.04V1.46ZM0.96 0.5C0.429807 0.5 0 0.929807 0 1.46V18.74C0 19.2702 0.429807 19.7 0.96 19.7H23.04C23.5702 19.7 24 19.2702 24 18.74V1.46C24 0.929807 23.5702 0.5 23.04 0.5H0.96Z" fill="black"/>
<path fill-rule="evenodd" clip-rule="evenodd" d="M0.96 15.86H23.04V16.82H0.96V15.86Z" fill="black"/>
<path fill-rule="evenodd" clip-rule="evenodd" d="M6.72 24.02C6.72 23.7549 6.9349 23.54 7.2 23.54H16.8C17.0651 23.54 17.28 23.7549 17.28 24.02C17.28 24.2851 17.0651 24.5 16.8 24.5H7.2C6.9349 24.5 6.72 24.2851 6.72 24.02Z" fill="black"/>
<path fill-rule="evenodd" clip-rule="evenodd" d="M10.4132 19.7L9.77324 23.54H14.2268L13.5868 19.7H10.4132ZM14.625 19.7H9.375L8.80668 23.54H15.2627L14.625 19.7Z" fill="black"/>
<path fill-rule="evenodd" clip-rule="evenodd" d="M13.4398 3.51228C13.6194 3.56203 13.7249 3.74854 13.6753 3.92886L10.9753 13.7513C10.9258 13.9316 10.7399 14.0375 10.5602 13.9877C10.3806 13.938 10.2751 13.7515 10.3247 13.5711L13.0247 3.74872C13.0742 3.56839 13.2601 3.46254 13.4398 3.51228ZM9.57885 6.01891C9.68386 6.17347 9.64413 6.38419 9.49013 6.48957L6.18661 8.75L9.49013 11.0104C9.64413 11.1158 9.68386 11.3265 9.57885 11.4811C9.47385 11.6356 9.26388 11.6755 9.10987 11.5701L5.39737 9.02985C5.30517 8.96675 5.25 8.862 5.25 8.75C5.25 8.638 5.30517 8.53325 5.39737 8.47015L9.10987 5.92987C9.26388 5.82449 9.47385 5.86436 9.57885 6.01891ZM14.4211 6.01891C14.5262 5.86436 14.7361 5.82449 14.8901 5.92987L18.6026 8.47015C18.6948 8.53325 18.75 8.638 18.75 8.75C18.75 8.862 18.6948 8.96675 18.6026 9.02985L14.8901 11.5701C14.7361 11.6755 14.5262 11.6356 14.4211 11.4811C14.3161 11.3265 14.3559 11.1158 14.5099 11.0104L17.8134 8.75L14.5099 6.48957C14.3559 6.38419 14.3161 6.17347 14.4211 6.01891Z" fill="black"/>
</svg>
